<?xml version="1.0" encoding="utf-8"?>
<svg xmlns="http://www.w3.org/2000/svg" 
	xmlns:xlink="http://www.w3.org/1999/xlink"
	width="42.641px" height="31.068px">
<path fill="#BCC1C0" d="M0.021,19.544C-0.528,9.778,9.728,2.139,16.168,0.176c1.349-0.411,2.797-0.159,3.358,1.353
	c0.492,1.326-0.533,2.264-1.538,2.814c-2.796,1.529-5.402,3.282-7.505,5.695c-1.003,1.151-2.306,2.195,0.532,3.028
	c6.551,1.921,9.029,5.535,8.016,11.017c-0.767,4.149-5.431,7.347-10.12,6.939C4.054,30.599-0.015,25.345,0.021,19.544z"/>
<path fill="#BCC1C0" d="M31.822,12.54c5.502,0.617,9.248,2.794,10.178,7.881c0.932,5.098-2.718,10.027-7.415,10.585
	c-5.362,0.638-10.9-3.825-11.527-9.288C22.062,13.033,30.38,1.774,38.984,0.183c1.362-0.252,2.801-0.304,3.457,1.193
	c0.708,1.616-0.6,2.528-1.718,3.146C37.361,6.382,34.263,8.48,31.822,12.54z"/>
</svg>
