<?xml version="1.0" encoding="utf-8"?>
<svg xmlns="http://www.w3.org/2000/svg"
	xmlns:xlink="http://www.w3.org/1999/xlink"
	width="75px" height="51px">
<clipPath id="clip0">
<path fill-rule="evenodd" d="M36.00 45.00 C36.00 45.00 36.00 14.00 36.00 14.00 C36.00 14.00 77.00 14.00 77.00 14.00 C77.00 14.00 77.00 45.00 77.00 45.00 C77.00 45.00 36.00 45.00 36.00 45.00 Z M73.00 22.02 C73.00 19.80 71.20 18.00 68.97 18.00 C68.97 18.00 44.02 18.00 44.02 18.00 C41.80 18.00 40.00 19.80 40.00 22.02 C40.00 22.02 40.00 36.97 40.00 36.97 C40.00 39.20 41.80 41.00 44.02 41.00 C44.02 41.00 68.97 41.00 68.97 41.00 C71.20 41.00 73.00 39.20 73.00 36.97 C73.00 36.97 73.00 22.02 73.00 22.02 Z"/>
</clipPath>
<clipPath id="clip1">
<path fill-rule="evenodd" d="M-2.00 39.00 C-2.00 39.00 -2.00 -2.00 -2.00 -2.00 C-2.00 -2.00 53.00 -2.00 53.00 -2.00 C53.00 -2.00 53.00 39.00 53.00 39.00 C53.00 39.00 -2.00 39.00 -2.00 39.00 Z M49.00 6.95 C49.00 4.22 46.78 2.00 44.05 2.00 C44.05 2.00 6.95 2.00 6.95 2.00 C4.22 2.00 2.00 4.22 2.00 6.95 C2.00 6.95 2.00 30.05 2.00 30.05 C2.00 32.78 4.22 35.00 6.95 35.00 C6.95 35.00 44.05 35.00 44.05 35.00 C46.78 35.00 49.00 32.78 49.00 30.05 C49.00 30.05 49.00 6.95 49.00 6.95 Z"/>
</clipPath>
<defs>
<rect id="symbol0" x="40.00" y="18.00" width="33.00" height="23.00" rx="4.00"/>
<rect id="symbol1" x="2.00" y="2.00" width="47.00" height="33.00" rx="5.00"/>
</defs>
<g>
<g>
<use xlink:href="#symbol0" fill="rgb(255,255,255)"/>
<use clip-path="url(#clip0)" xlink:href="#symbol0" fill="none" stroke="rgb(139,149,147)" stroke-width="4.00px"/>
</g>
<g>
<use xlink:href="#symbol1" fill="rgb(255,255,255)"/>
<use clip-path="url(#clip1)" xlink:href="#symbol1" fill="none" stroke="rgb(247,139,1)" stroke-width="4.00px"/>
</g>
<path fill="rgb(255,255,255)" fill-rule="evenodd" d="M63.00 40.00 C63.00 40.00 63.00 44.00 63.00 44.00 C63.00 44.00 57.00 44.00 57.00 44.00 C57.00 44.00 54.00 40.00 54.00 40.00 C54.00 40.00 63.00 40.00 63.00 40.00 Z"/>
<path fill="rgb(139,148,147)" fill-rule="evenodd" d="M52.00 41.00 C52.00 41.00 61.00 50.00 61.00 50.00 C61.00 50.00 61.97 51.00 63.00 51.00 C64.03 51.00 64.00 49.00 64.00 49.00 C64.00 49.00 64.00 41.00 64.00 41.00 C64.00 41.00 62.00 41.00 62.00 41.00 C62.00 41.00 62.00 48.00 62.00 48.00 C62.00 48.00 55.00 41.00 55.00 41.00 C55.00 41.00 52.00 41.00 52.00 41.00 Z"/>
<rect x="12.00" y="34.00" width="9.00" height="3.00" fill="rgb(255,255,255)"/>
<path fill="rgb(246,137,0)" fill-rule="evenodd" d="M10.00 35.00 C10.00 35.00 10.00 45.00 10.00 45.00 C10.00 45.00 9.97 47.00 11.00 47.00 C12.03 47.00 13.00 46.00 13.00 46.00 C13.00 46.00 24.00 35.00 24.00 35.00 C24.00 35.00 21.00 35.00 21.00 35.00 C21.00 35.00 12.00 44.00 12.00 44.00 C12.00 44.00 12.00 35.00 12.00 35.00 C12.00 35.00 10.00 35.00 10.00 35.00 Z"/>
<path fill="rgb(139,148,147)" fill-rule="evenodd" d="M38.62 12.58 C38.48 12.48 38.29 12.43 38.07 12.43 C37.84 12.43 37.66 12.48 37.51 12.58 C37.37 12.67 37.30 12.80 37.30 12.94 C37.30 13.10 37.37 13.22 37.51 13.31 C37.66 13.41 37.84 13.46 38.07 13.46 C38.29 13.46 38.48 13.41 38.62 13.31 C38.76 13.22 38.83 13.10 38.83 12.94 C38.83 12.80 38.76 12.67 38.62 12.58 Z M36.20 23.14 C36.11 23.10 36.03 23.07 35.97 23.02 C35.89 22.98 35.83 22.92 35.76 22.86 C35.76 22.86 35.63 22.86 35.63 22.86 C35.63 22.86 35.31 23.78 35.31 23.78 C35.41 23.86 35.53 23.93 35.66 23.99 C35.77 24.05 35.91 24.10 36.06 24.14 C36.23 24.18 36.40 24.21 36.59 24.21 C36.91 24.21 37.20 24.15 37.46 24.06 C37.72 23.95 37.94 23.81 38.13 23.63 C38.31 23.44 38.46 23.22 38.55 22.97 C38.65 22.70 38.71 22.42 38.71 22.10 C38.71 22.10 38.71 14.99 38.71 14.99 C38.71 14.99 37.43 14.99 37.43 14.99 C37.43 14.99 37.43 22.02 37.43 22.02 C37.43 22.40 37.34 22.70 37.16 22.90 C36.99 23.08 36.75 23.18 36.47 23.18 C36.37 23.18 36.28 23.17 36.20 23.14 Z M32.27 11.41 C32.27 11.41 29.96 14.99 29.96 14.99 C29.96 14.99 31.24 14.99 31.24 14.99 C31.24 14.99 32.71 12.71 32.71 12.71 C32.71 12.71 34.19 14.99 34.19 14.99 C34.19 14.99 35.47 14.99 35.47 14.99 C35.47 14.99 33.16 11.41 33.16 11.41 C33.16 11.41 32.27 11.41 32.27 11.41 Z M25.23 23.76 C25.23 23.76 26.91 23.76 26.91 23.76 C26.91 23.76 26.91 23.13 26.91 23.13 C27.80 22.97 28.48 22.60 28.94 22.02 C29.40 21.44 29.63 20.72 29.63 19.84 C29.63 19.22 29.50 18.71 29.24 18.31 C28.98 17.91 28.66 17.58 28.28 17.30 C27.90 17.02 27.48 16.79 27.03 16.59 C26.57 16.39 26.15 16.18 25.77 15.96 C25.39 15.74 25.07 15.49 24.81 15.20 C24.55 14.92 24.43 14.55 24.43 14.10 C24.43 13.86 24.47 13.62 24.57 13.39 C24.67 13.17 24.80 12.97 24.98 12.80 C25.16 12.63 25.37 12.49 25.61 12.39 C25.85 12.29 26.13 12.24 26.43 12.24 C26.80 12.24 27.11 12.29 27.39 12.38 C27.67 12.47 27.90 12.56 28.09 12.65 C28.31 12.77 28.51 12.91 28.67 13.05 C28.67 13.05 28.83 13.05 28.83 13.05 C28.83 13.05 29.39 12.03 29.39 12.03 C29.21 11.91 29.01 11.80 28.77 11.69 C28.55 11.61 28.29 11.52 27.98 11.44 C27.67 11.36 27.31 11.29 26.91 11.25 C26.91 11.25 26.91 10.32 26.91 10.32 C26.91 10.32 25.23 10.32 25.23 10.32 C25.23 10.32 25.23 11.32 25.23 11.32 C24.46 11.52 23.87 11.90 23.45 12.46 C23.03 13.02 22.83 13.70 22.83 14.50 C22.83 15.14 22.95 15.66 23.21 16.07 C23.47 16.48 23.79 16.83 24.17 17.11 C24.55 17.39 24.97 17.64 25.43 17.84 C25.88 18.04 26.30 18.26 26.68 18.48 C27.06 18.71 27.38 18.97 27.64 19.26 C27.90 19.56 28.03 19.94 28.03 20.40 C28.03 21.02 27.84 21.52 27.45 21.90 C27.07 22.29 26.51 22.48 25.80 22.48 C25.43 22.48 25.10 22.44 24.81 22.36 C24.51 22.28 24.26 22.19 24.05 22.09 C23.80 21.97 23.58 21.84 23.39 21.68 C23.39 21.68 23.23 21.68 23.23 21.68 C23.23 21.68 22.67 22.65 22.67 22.65 C22.86 22.72 23.08 22.79 23.35 22.86 C23.55 22.92 23.83 22.97 24.14 23.03 C24.46 23.08 24.82 23.12 25.23 23.15 C25.23 23.15 25.23 23.76 25.23 23.76 Z M42.52 18.77 C42.52 18.77 43.55 18.77 43.55 18.77 C43.55 18.77 43.80 12.11 43.80 12.11 C43.80 12.11 42.27 12.11 42.27 12.11 C42.27 12.11 42.52 18.77 42.52 18.77 Z M42.48 21.18 C42.63 21.28 42.81 21.33 43.03 21.33 C43.26 21.33 43.44 21.28 43.59 21.18 C43.73 21.09 43.80 20.97 43.80 20.82 C43.80 20.67 43.73 20.54 43.59 20.45 C43.44 20.35 43.26 20.30 43.03 20.30 C42.81 20.30 42.63 20.35 42.48 20.45 C42.34 20.54 42.27 20.67 42.27 20.82 C42.27 20.97 42.34 21.09 42.48 21.18 Z M16.88 13.11 C16.88 13.11 15.60 13.11 15.60 13.11 C15.60 13.11 15.07 15.67 15.07 15.67 C15.07 15.67 13.55 15.67 13.55 15.67 C13.55 15.67 13.55 16.70 13.55 16.70 C13.55 16.70 14.87 16.70 14.87 16.70 C14.87 16.70 14.28 19.26 14.28 19.26 C14.28 19.26 12.79 19.26 12.79 19.26 C12.79 19.26 12.79 20.28 12.79 20.28 C12.79 20.28 14.08 20.28 14.08 20.28 C14.08 20.28 13.55 22.33 13.55 22.33 C13.55 22.33 14.83 22.33 14.83 22.33 C14.83 22.33 15.36 20.28 15.36 20.28 C15.36 20.28 17.16 20.28 17.16 20.28 C17.16 20.28 16.63 22.33 16.63 22.33 C16.63 22.33 17.91 22.33 17.91 22.33 C17.91 22.33 18.43 20.28 18.43 20.28 C18.43 20.28 19.95 20.28 19.95 20.28 C19.95 20.28 19.95 19.26 19.95 19.26 C19.95 19.26 18.64 19.26 18.64 19.26 C18.64 19.26 19.23 16.70 19.23 16.70 C19.23 16.70 20.72 16.70 20.72 16.70 C20.72 16.70 20.72 15.67 20.72 15.67 C20.72 15.67 19.43 15.67 19.43 15.67 C19.43 15.67 19.95 13.11 19.95 13.11 C19.95 13.11 18.67 13.11 18.67 13.11 C18.67 13.11 18.15 15.67 18.15 15.67 C18.15 15.67 16.35 15.67 16.35 15.67 C16.35 15.67 16.88 13.11 16.88 13.11 Z M16.15 16.70 C16.15 16.70 17.95 16.70 17.95 16.70 C17.95 16.70 17.35 19.26 17.35 19.26 C17.35 19.26 15.56 19.26 15.56 19.26 C15.56 19.26 16.15 16.70 16.15 16.70 Z M7.75 18.77 C7.70 18.83 7.64 18.87 7.58 18.91 C7.53 18.95 7.47 18.98 7.39 19.01 C7.32 19.04 7.24 19.05 7.16 19.05 C7.07 19.05 6.98 19.03 6.90 18.99 C6.83 18.95 6.76 18.89 6.70 18.81 C6.64 18.73 6.59 18.62 6.56 18.49 C6.52 18.36 6.51 18.19 6.51 18.00 C6.51 17.81 6.52 17.65 6.56 17.51 C6.59 17.38 6.64 17.27 6.70 17.19 C6.76 17.11 6.83 17.05 6.90 17.01 C6.98 16.97 7.07 16.95 7.16 16.95 C7.24 16.95 7.32 16.97 7.39 17.01 C7.47 17.05 7.53 17.09 7.58 17.14 C7.64 17.20 7.70 17.26 7.75 17.33 C7.75 17.33 7.75 18.77 7.75 18.77 Z M7.74 20.83 C7.91 20.78 8.06 20.74 8.18 20.68 C8.32 20.63 8.44 20.56 8.54 20.48 C8.54 20.48 8.31 20.02 8.31 20.02 C8.31 20.02 8.24 20.02 8.24 20.02 C8.16 20.09 8.07 20.15 7.96 20.20 C7.87 20.23 7.76 20.27 7.63 20.31 C7.51 20.34 7.36 20.36 7.19 20.36 C6.88 20.36 6.59 20.30 6.33 20.19 C6.07 20.08 5.84 19.92 5.65 19.71 C5.45 19.51 5.30 19.26 5.20 18.97 C5.09 18.68 5.03 18.36 5.03 18.00 C5.03 17.65 5.09 17.32 5.20 17.03 C5.30 16.75 5.45 16.50 5.65 16.29 C5.84 16.08 6.07 15.92 6.33 15.81 C6.59 15.70 6.88 15.64 7.19 15.64 C7.51 15.64 7.79 15.69 8.06 15.80 C8.32 15.91 8.55 16.06 8.74 16.26 C8.93 16.46 9.08 16.69 9.19 16.97 C9.30 17.25 9.36 17.55 9.36 17.89 C9.36 18.11 9.34 18.29 9.30 18.44 C9.26 18.59 9.20 18.71 9.14 18.80 C9.07 18.89 9.00 18.95 8.93 18.99 C8.85 19.03 8.78 19.05 8.70 19.05 C8.66 19.05 8.62 19.05 8.58 19.04 C8.58 19.04 8.49 19.02 8.49 19.02 C8.49 19.02 8.41 18.99 8.41 18.99 C8.41 18.99 8.41 16.51 8.41 16.51 C8.41 16.51 7.95 16.51 7.95 16.51 C7.95 16.51 7.88 16.95 7.88 16.95 C7.88 16.95 7.85 16.95 7.85 16.95 C7.79 16.86 7.72 16.77 7.63 16.69 C7.56 16.63 7.47 16.57 7.36 16.51 C7.26 16.46 7.14 16.43 7.00 16.43 C6.83 16.43 6.68 16.46 6.54 16.52 C6.40 16.59 6.28 16.68 6.18 16.81 C6.08 16.94 5.99 17.10 5.94 17.30 C5.88 17.50 5.85 17.73 5.85 18.00 C5.85 18.27 5.88 18.50 5.94 18.70 C5.99 18.90 6.08 19.06 6.18 19.19 C6.28 19.32 6.40 19.42 6.54 19.48 C6.68 19.54 6.83 19.57 7.00 19.57 C7.13 19.57 7.24 19.56 7.35 19.54 C7.46 19.51 7.55 19.48 7.62 19.45 C7.70 19.41 7.78 19.36 7.85 19.31 C7.85 19.31 7.88 19.31 7.88 19.31 C7.93 19.36 8.00 19.41 8.08 19.45 C8.15 19.48 8.24 19.51 8.35 19.54 C8.46 19.56 8.60 19.57 8.77 19.57 C8.93 19.57 9.08 19.54 9.23 19.47 C9.37 19.41 9.50 19.31 9.60 19.17 C9.71 19.03 9.79 18.86 9.85 18.66 C9.91 18.45 9.95 18.21 9.95 17.93 C9.95 17.53 9.88 17.16 9.74 16.81 C9.60 16.47 9.41 16.17 9.16 15.92 C8.92 15.67 8.62 15.48 8.29 15.33 C7.95 15.19 7.59 15.12 7.19 15.12 C6.80 15.12 6.44 15.19 6.10 15.34 C5.77 15.48 5.47 15.69 5.23 15.94 C4.98 16.20 4.79 16.50 4.65 16.85 C4.51 17.21 4.44 17.59 4.44 18.00 C4.44 18.41 4.51 18.79 4.65 19.15 C4.79 19.50 4.97 19.81 5.22 20.06 C5.46 20.31 5.74 20.51 6.07 20.67 C6.40 20.81 6.75 20.88 7.13 20.88 C7.36 20.88 7.56 20.86 7.74 20.83 Z"/>
<path fill="rgb(246,138,1)" fill-rule="evenodd" d="M62.43 30.52 C62.53 31.07 62.68 31.60 62.89 32.11 C63.09 32.61 63.35 33.09 63.65 33.56 C63.96 34.00 64.31 34.42 64.71 34.80 C64.71 34.80 65.22 34.28 65.22 34.28 C64.71 33.52 64.30 32.70 64.01 31.84 C63.70 30.97 63.56 29.98 63.56 28.86 C63.56 27.75 63.70 26.76 64.01 25.88 C64.30 25.02 64.71 24.20 65.22 23.44 C65.22 23.44 64.71 22.92 64.71 22.92 C64.31 23.30 63.96 23.72 63.65 24.17 C63.35 24.63 63.09 25.11 62.89 25.62 C62.68 26.13 62.53 26.66 62.43 27.20 C62.33 27.76 62.28 28.31 62.28 28.86 C62.28 29.42 62.33 29.97 62.43 30.52 Z M57.97 28.22 C57.97 28.22 52.98 25.43 52.98 25.43 C52.98 25.43 52.98 26.66 52.98 26.66 C52.98 26.66 56.56 28.68 56.56 28.68 C56.56 28.68 52.98 30.70 52.98 30.70 C52.98 30.70 52.98 31.94 52.98 31.94 C52.98 31.94 57.97 29.14 57.97 29.14 C57.97 29.14 57.97 28.22 57.97 28.22 Z M58.42 32.58 C58.60 32.70 58.83 32.76 59.11 32.76 C59.39 32.76 59.62 32.70 59.80 32.58 C59.98 32.46 60.07 32.31 60.07 32.12 C60.07 31.94 59.98 31.78 59.80 31.66 C59.62 31.54 59.39 31.48 59.11 31.48 C58.83 31.48 58.60 31.54 58.42 31.66 C58.24 31.78 58.15 31.94 58.15 32.12 C58.15 32.31 58.24 32.46 58.42 32.58 Z M58.42 25.54 C58.60 25.66 58.83 25.72 59.11 25.72 C59.39 25.72 59.62 25.66 59.80 25.54 C59.98 25.42 60.07 25.27 60.07 25.08 C60.07 24.90 59.98 24.74 59.80 24.62 C59.62 24.50 59.39 24.44 59.11 24.44 C58.83 24.44 58.60 24.50 58.42 24.62 C58.24 24.74 58.15 24.90 58.15 25.08 C58.15 25.27 58.24 25.42 58.42 25.54 Z"/>
</g>
</svg>