<?xml version="1.0" encoding="utf-8"?>
<svg xmlns="http://www.w3.org/2000/svg"
	xmlns:xlink="http://www.w3.org/1999/xlink"
	width="43px" height="52px">
<g>
<path fill="rgb(255,255,255)" fill-rule="evenodd" d="M23.00 -0.00 C23.00 -0.00 31.00 -0.00 31.00 -0.00 C31.00 -0.00 31.00 9.00 31.00 9.00 C31.00 9.00 23.00 -0.00 23.00 -0.00 Z"/>
<path fill="rgb(139,148,147)" fill-rule="evenodd" d="M21.00 32.00 C20.45 32.00 20.00 32.45 20.00 33.00 C20.00 33.55 20.45 34.00 21.00 34.00 C21.00 34.00 25.00 34.00 25.00 34.00 C25.55 34.00 26.00 33.55 26.00 33.00 C26.00 32.45 25.55 32.00 25.00 32.00 C25.00 32.00 21.00 32.00 21.00 32.00 Z M6.00 19.00 C5.45 19.00 5.00 19.45 5.00 20.00 C5.00 20.55 5.45 21.00 6.00 21.00 C6.00 21.00 25.00 21.00 25.00 21.00 C25.55 21.00 26.00 20.55 26.00 20.00 C26.00 19.45 25.55 19.00 25.00 19.00 C25.00 19.00 6.00 19.00 6.00 19.00 Z M6.00 15.00 C5.45 15.00 5.00 15.45 5.00 16.00 C5.00 16.55 5.45 17.00 6.00 17.00 C6.00 17.00 25.00 17.00 25.00 17.00 C25.55 17.00 26.00 16.55 26.00 16.00 C26.00 15.45 25.55 15.00 25.00 15.00 C25.00 15.00 6.00 15.00 6.00 15.00 Z M6.00 11.00 C5.45 11.00 5.00 11.45 5.00 12.00 C5.00 12.55 5.45 13.00 6.00 13.00 C6.00 13.00 25.00 13.00 25.00 13.00 C25.55 13.00 26.00 12.55 26.00 12.00 C26.00 11.45 25.55 11.00 25.00 11.00 C25.00 11.00 6.00 11.00 6.00 11.00 Z"/>
<path fill="rgb(139,148,147)" fill-rule="evenodd" d="M30.00 16.00 C30.00 16.00 30.00 18.00 30.00 18.00 C30.00 18.00 41.00 18.00 41.00 18.00 C41.00 18.00 41.00 50.00 41.00 50.00 C41.00 50.00 18.00 50.00 18.00 50.00 C18.00 50.00 18.00 41.00 18.00 41.00 C18.00 41.00 16.00 41.00 16.00 41.00 C16.00 41.00 16.00 50.00 16.00 50.00 C16.00 50.00 16.00 52.00 16.00 52.00 C16.00 52.00 18.00 52.00 18.00 52.00 C18.00 52.00 41.00 52.00 41.00 52.00 C41.00 52.00 43.00 52.00 43.00 52.00 C43.00 52.00 43.00 50.00 43.00 50.00 C43.00 50.00 43.00 18.00 43.00 18.00 C43.00 18.00 43.00 16.00 43.00 16.00 C43.00 16.00 41.00 16.00 41.00 16.00 C41.00 16.00 30.00 16.00 30.00 16.00 Z M22.00 45.00 C21.45 45.00 21.00 45.45 21.00 46.00 C21.00 46.55 21.45 47.00 22.00 47.00 C22.00 47.00 23.00 47.00 23.00 47.00 C23.55 47.00 24.00 46.55 24.00 46.00 C24.00 45.45 23.55 45.00 23.00 45.00 C23.00 45.00 22.00 45.00 22.00 45.00 Z M33.00 23.00 C32.45 23.00 32.00 23.45 32.00 24.00 C32.00 24.55 32.45 25.00 33.00 25.00 C33.00 25.00 37.00 25.00 37.00 25.00 C37.55 25.00 38.00 24.55 38.00 24.00 C38.00 23.45 37.55 23.00 37.00 23.00 C37.00 23.00 33.00 23.00 33.00 23.00 Z M33.00 45.00 C32.45 45.00 32.00 45.45 32.00 46.00 C32.00 46.55 32.45 47.00 33.00 47.00 C33.00 47.00 37.00 47.00 37.00 47.00 C37.55 47.00 38.00 46.55 38.00 46.00 C38.00 45.45 37.55 45.00 37.00 45.00 C37.00 45.00 33.00 45.00 33.00 45.00 Z M30.00 33.00 C30.00 33.00 37.00 33.00 37.00 33.00 C37.55 33.00 38.00 32.55 38.00 32.00 C38.00 31.45 37.55 31.00 37.00 31.00 C37.00 31.00 30.00 31.00 30.00 31.00 C30.00 31.00 30.00 33.00 30.00 33.00 Z M30.00 29.00 C30.00 29.00 37.00 29.00 37.00 29.00 C37.55 29.00 38.00 28.55 38.00 28.00 C38.00 27.45 37.55 27.00 37.00 27.00 C37.00 27.00 30.00 27.00 30.00 27.00 C30.00 27.00 30.00 29.00 30.00 29.00 Z"/>
<path fill="rgb(246,137,0)" fill-rule="evenodd" d="M28.00 7.00 C28.00 7.00 24.00 7.00 24.00 7.00 C24.00 7.00 24.00 3.00 24.00 3.00 C24.00 3.00 28.00 7.00 28.00 7.00 Z M29.00 42.00 C29.00 42.00 31.00 42.00 31.00 42.00 C31.00 42.00 31.00 40.00 31.00 40.00 C31.00 40.00 31.00 9.00 31.00 9.00 C31.00 9.00 31.00 7.00 31.00 7.00 C31.00 7.00 24.00 -0.00 24.00 -0.00 C24.00 -0.00 22.00 -0.00 22.00 -0.00 C22.00 -0.00 2.00 -0.00 2.00 -0.00 C2.00 -0.00 -0.00 -0.00 -0.00 -0.00 C-0.00 -0.00 -0.00 2.00 -0.00 2.00 C-0.00 2.00 -0.00 40.00 -0.00 40.00 C-0.00 40.00 -0.00 41.00 -0.00 41.00 C-0.00 41.00 -0.00 42.00 -0.00 42.00 C-0.00 42.00 29.00 42.00 29.00 42.00 Z M29.00 9.00 C29.00 9.00 29.00 40.00 29.00 40.00 C29.00 40.00 2.00 40.00 2.00 40.00 C2.00 40.00 2.00 2.00 2.00 2.00 C2.00 2.00 22.00 2.00 22.00 2.00 C22.00 2.00 22.00 9.00 22.00 9.00 C22.00 9.00 29.00 9.00 29.00 9.00 Z M6.00 32.00 C5.45 32.00 5.00 32.45 5.00 33.00 C5.00 33.55 5.45 34.00 6.00 34.00 C6.00 34.00 10.00 34.00 10.00 34.00 C10.55 34.00 11.00 33.55 11.00 33.00 C11.00 32.45 10.55 32.00 10.00 32.00 C10.00 32.00 6.00 32.00 6.00 32.00 Z"/>
</g>
</svg>