<?xml version="1.0" encoding="utf-8"?>
<svg xmlns="http://www.w3.org/2000/svg"
	xmlns:xlink="http://www.w3.org/1999/xlink"
	width="50px" height="55px">
<g>
<path opacity="0.25" fill="rgb(139,148,147)" fill-rule="evenodd" d="M25.00 31.00 C25.00 31.00 25.00 6.00 25.00 6.00 C25.00 6.00 39.87 5.81 44.69 16.81 C44.69 16.81 25.00 31.00 25.00 31.00 Z"/>
<path fill="rgb(246,137,0)" fill-rule="evenodd" d="M2.00 30.00 C2.00 17.30 12.30 7.00 25.00 7.00 C37.70 7.00 48.00 17.30 48.00 30.00 C48.00 42.70 37.70 53.00 25.00 53.00 C12.30 53.00 2.00 42.70 2.00 30.00 Z M-0.00 30.00 C-0.00 43.81 11.19 55.00 25.00 55.00 C38.81 55.00 50.00 43.81 50.00 30.00 C50.00 16.19 38.81 5.00 25.00 5.00 C11.19 5.00 -0.00 16.19 -0.00 30.00 Z"/>
<path fill="rgb(246,137,0)" fill-rule="evenodd" d="M33.30 41.67 C33.30 41.67 24.36 32.15 24.36 32.15 C24.34 32.13 24.33 32.11 24.32 32.09 C24.13 31.89 24.00 31.60 24.00 31.28 C24.00 31.28 24.00 20.12 24.00 20.12 C24.00 19.50 24.45 19.00 25.00 19.00 C25.55 19.00 26.00 19.50 26.00 20.12 C26.00 20.12 26.00 30.83 26.00 30.83 C26.00 30.83 34.71 40.09 34.71 40.09 C35.10 40.53 35.10 41.24 34.71 41.67 C34.32 42.11 33.69 42.11 33.30 41.67 Z"/>
<rect x="24.00" y="13.00" width="2.00" height="19.00" fill="rgb(246,137,0)" rx="1.00"/>
<path fill="rgb(139,148,147)" fill-rule="evenodd" d="M24.00 11.00 C24.00 11.55 24.45 12.00 25.00 12.00 C25.55 12.00 26.00 11.55 26.00 11.00 C26.00 11.00 26.00 10.00 26.00 10.00 C26.00 9.45 25.55 9.00 25.00 9.00 C24.45 9.00 24.00 9.45 24.00 10.00 C24.00 10.00 24.00 11.00 24.00 11.00 Z M24.00 50.00 C24.00 50.55 24.45 51.00 25.00 51.00 C25.55 51.00 26.00 50.55 26.00 50.00 C26.00 50.00 26.00 49.00 26.00 49.00 C26.00 48.45 25.55 48.00 25.00 48.00 C24.45 48.00 24.00 48.45 24.00 49.00 C24.00 49.00 24.00 50.00 24.00 50.00 Z M44.00 29.00 C43.45 29.00 43.00 29.45 43.00 30.00 C43.00 30.55 43.45 31.00 44.00 31.00 C44.00 31.00 45.00 31.00 45.00 31.00 C45.55 31.00 46.00 30.55 46.00 30.00 C46.00 29.45 45.55 29.00 45.00 29.00 C45.00 29.00 44.00 29.00 44.00 29.00 Z M5.00 29.00 C4.45 29.00 4.00 29.45 4.00 30.00 C4.00 30.55 4.45 31.00 5.00 31.00 C5.00 31.00 6.00 31.00 6.00 31.00 C6.55 31.00 7.00 30.55 7.00 30.00 C7.00 29.45 6.55 29.00 6.00 29.00 C6.00 29.00 5.00 29.00 5.00 29.00 Z M24.00 2.00 C24.00 2.00 24.00 5.00 24.00 5.00 C24.00 5.00 26.00 5.00 26.00 5.00 C26.00 5.00 26.00 2.00 26.00 2.00 C26.00 2.00 28.00 2.00 28.00 2.00 C28.55 2.00 29.00 1.55 29.00 1.00 C29.00 0.45 28.55 -0.00 28.00 -0.00 C28.00 -0.00 25.00 -0.00 25.00 -0.00 C25.00 -0.00 22.00 -0.00 22.00 -0.00 C21.45 -0.00 21.00 0.45 21.00 1.00 C21.00 1.55 21.45 2.00 22.00 2.00 C22.00 2.00 24.00 2.00 24.00 2.00 Z"/>
</g>
</svg>