<?xml version="1.0" encoding="utf-8"?>
<svg xmlns="http://www.w3.org/2000/svg"
	xmlns:xlink="http://www.w3.org/1999/xlink"
	width="83px" height="72px">
<g>
<path fill="rgb(139,148,147)" fill-rule="evenodd" d="M64.00 43.00 C64.00 43.00 64.00 35.00 64.00 35.00 C64.00 35.00 72.00 35.00 72.00 35.00 C72.00 35.00 72.00 43.00 72.00 43.00 C72.00 43.00 64.00 43.00 64.00 43.00 Z M64.00 52.00 C64.00 52.00 64.00 44.00 64.00 44.00 C64.00 44.00 72.00 44.00 72.00 44.00 C72.00 44.00 72.00 52.00 72.00 52.00 C72.00 52.00 64.00 52.00 64.00 52.00 Z M64.00 61.00 C64.00 61.00 64.00 53.00 64.00 53.00 C64.00 53.00 72.00 53.00 72.00 53.00 C72.00 53.00 72.00 61.00 72.00 61.00 C72.00 61.00 64.00 61.00 64.00 61.00 Z M55.00 43.00 C55.00 43.00 55.00 35.00 55.00 35.00 C55.00 35.00 63.00 35.00 63.00 35.00 C63.00 35.00 63.00 43.00 63.00 43.00 C63.00 43.00 55.00 43.00 55.00 43.00 Z M55.00 52.00 C55.00 52.00 55.00 44.00 55.00 44.00 C55.00 44.00 63.00 44.00 63.00 44.00 C63.00 44.00 63.00 52.00 63.00 52.00 C63.00 52.00 55.00 52.00 55.00 52.00 Z M55.00 61.00 C55.00 61.00 55.00 53.00 55.00 53.00 C55.00 53.00 63.00 53.00 63.00 53.00 C63.00 53.00 63.00 61.00 63.00 61.00 C63.00 61.00 55.00 61.00 55.00 61.00 Z M36.00 55.00 C36.00 55.00 36.00 61.00 36.00 61.00 C36.00 61.00 31.00 61.00 31.00 61.00 C31.00 61.00 31.00 62.00 31.00 62.00 C31.00 62.00 36.00 62.00 36.00 62.00 C36.00 62.00 36.00 67.00 36.00 67.00 C36.00 67.00 37.00 67.00 37.00 67.00 C37.00 67.00 37.00 62.00 37.00 62.00 C37.00 62.00 45.00 62.00 45.00 62.00 C45.00 62.00 45.00 67.00 45.00 67.00 C45.00 67.00 46.00 67.00 46.00 67.00 C46.00 67.00 46.00 62.00 46.00 62.00 C46.00 62.00 54.00 62.00 54.00 62.00 C54.00 62.00 54.00 67.00 54.00 67.00 C54.00 67.00 55.00 67.00 55.00 67.00 C55.00 67.00 55.00 62.00 55.00 62.00 C55.00 62.00 63.00 62.00 63.00 62.00 C63.00 62.00 63.00 67.00 63.00 67.00 C63.00 67.00 64.00 67.00 64.00 67.00 C64.00 67.00 64.00 62.00 64.00 62.00 C64.00 62.00 72.00 62.00 72.00 62.00 C72.00 62.00 72.00 67.00 72.00 67.00 C72.00 67.00 73.00 67.00 73.00 67.00 C73.00 67.00 73.00 62.00 73.00 62.00 C73.00 62.00 78.00 62.00 78.00 62.00 C78.00 62.00 78.00 61.00 78.00 61.00 C78.00 61.00 73.00 61.00 73.00 61.00 C73.00 61.00 73.00 53.00 73.00 53.00 C73.00 53.00 78.00 53.00 78.00 53.00 C78.00 53.00 78.00 52.00 78.00 52.00 C78.00 52.00 73.00 52.00 73.00 52.00 C73.00 52.00 73.00 44.00 73.00 44.00 C73.00 44.00 78.00 44.00 78.00 44.00 C78.00 44.00 78.00 43.00 78.00 43.00 C78.00 43.00 73.00 43.00 73.00 43.00 C73.00 43.00 73.00 35.00 73.00 35.00 C73.00 35.00 78.00 35.00 78.00 35.00 C78.00 35.00 78.00 34.00 78.00 34.00 C78.00 34.00 73.00 34.00 73.00 34.00 C73.00 34.00 73.00 29.00 73.00 29.00 C73.00 29.00 72.00 29.00 72.00 29.00 C72.00 29.00 72.00 34.00 72.00 34.00 C72.00 34.00 64.00 34.00 64.00 34.00 C64.00 34.00 64.00 29.00 64.00 29.00 C64.00 29.00 63.00 29.00 63.00 29.00 C63.00 29.00 63.00 34.00 63.00 34.00 C63.00 34.00 55.00 34.00 55.00 34.00 C55.00 34.00 55.00 29.00 55.00 29.00 C55.00 29.00 54.00 29.00 54.00 29.00 C54.00 29.00 54.00 34.00 54.00 34.00 C54.00 34.00 54.00 35.00 54.00 35.00 C54.00 35.00 54.00 43.00 54.00 43.00 C54.00 43.00 54.00 44.00 54.00 44.00 C54.00 44.00 54.00 52.00 54.00 52.00 C54.00 52.00 54.00 53.00 54.00 53.00 C54.00 53.00 54.00 61.00 54.00 61.00 C54.00 61.00 46.00 61.00 46.00 61.00 C46.00 61.00 46.00 55.00 46.00 55.00 C46.00 55.00 45.00 55.00 45.00 55.00 C45.00 55.00 45.00 61.00 45.00 61.00 C45.00 61.00 37.00 61.00 37.00 61.00 C37.00 61.00 37.00 55.00 37.00 55.00 C37.00 55.00 36.00 55.00 36.00 55.00 Z"/>
<path fill="rgb(246,137,0)" fill-rule="evenodd" d="M54.00 26.00 C54.00 26.00 83.00 26.00 83.00 26.00 C83.00 26.00 83.00 15.00 83.00 15.00 C83.00 15.00 54.00 15.00 54.00 15.00 C54.00 15.00 54.00 26.00 54.00 26.00 Z"/>
<path fill="rgb(139,148,147)" fill-rule="evenodd" d="M38.50 37.00 C37.67 37.00 37.00 37.67 37.00 38.50 C37.00 39.33 37.67 40.00 38.50 40.00 C38.50 40.00 46.50 40.00 46.50 40.00 C47.33 40.00 48.00 39.33 48.00 38.50 C48.00 37.67 47.33 37.00 46.50 37.00 C46.50 37.00 38.50 37.00 38.50 37.00 Z M38.50 31.00 C37.67 31.00 37.00 31.67 37.00 32.50 C37.00 33.33 37.67 34.00 38.50 34.00 C38.50 34.00 46.50 34.00 46.50 34.00 C47.33 34.00 48.00 33.33 48.00 32.50 C48.00 31.67 47.33 31.00 46.50 31.00 C46.50 31.00 38.50 31.00 38.50 31.00 Z M38.50 25.00 C37.67 25.00 37.00 25.67 37.00 26.50 C37.00 27.33 37.67 28.00 38.50 28.00 C38.50 28.00 46.50 28.00 46.50 28.00 C47.33 28.00 48.00 27.33 48.00 26.50 C48.00 25.67 47.33 25.00 46.50 25.00 C46.50 25.00 38.50 25.00 38.50 25.00 Z M38.50 19.00 C37.67 19.00 37.00 19.67 37.00 20.50 C37.00 21.33 37.67 22.00 38.50 22.00 C38.50 22.00 46.50 22.00 46.50 22.00 C47.33 22.00 48.00 21.33 48.00 20.50 C48.00 19.67 47.33 19.00 46.50 19.00 C46.50 19.00 38.50 19.00 38.50 19.00 Z M23.50 43.00 C22.67 43.00 22.00 43.67 22.00 44.50 C22.00 45.33 22.67 46.00 23.50 46.00 C23.50 46.00 31.50 46.00 31.50 46.00 C32.33 46.00 33.00 45.33 33.00 44.50 C33.00 43.67 32.33 43.00 31.50 43.00 C31.50 43.00 23.50 43.00 23.50 43.00 Z M23.50 37.00 C22.67 37.00 22.00 37.67 22.00 38.50 C22.00 39.33 22.67 40.00 23.50 40.00 C23.50 40.00 31.50 40.00 31.50 40.00 C32.33 40.00 33.00 39.33 33.00 38.50 C33.00 37.67 32.33 37.00 31.50 37.00 C31.50 37.00 23.50 37.00 23.50 37.00 Z M23.50 31.00 C22.67 31.00 22.00 31.67 22.00 32.50 C22.00 33.33 22.67 34.00 23.50 34.00 C23.50 34.00 31.50 34.00 31.50 34.00 C32.33 34.00 33.00 33.33 33.00 32.50 C33.00 31.67 32.33 31.00 31.50 31.00 C31.50 31.00 23.50 31.00 23.50 31.00 Z M23.50 25.00 C22.67 25.00 22.00 25.67 22.00 26.50 C22.00 27.33 22.67 28.00 23.50 28.00 C23.50 28.00 31.50 28.00 31.50 28.00 C32.33 28.00 33.00 27.33 33.00 26.50 C33.00 25.67 32.33 25.00 31.50 25.00 C31.50 25.00 23.50 25.00 23.50 25.00 Z M23.50 19.00 C22.67 19.00 22.00 19.67 22.00 20.50 C22.00 21.33 22.67 22.00 23.50 22.00 C23.50 22.00 31.50 22.00 31.50 22.00 C32.33 22.00 33.00 21.33 33.00 20.50 C33.00 19.67 32.33 19.00 31.50 19.00 C31.50 19.00 23.50 19.00 23.50 19.00 Z M8.50 43.00 C7.67 43.00 7.00 43.67 7.00 44.50 C7.00 45.33 7.67 46.00 8.50 46.00 C8.50 46.00 16.50 46.00 16.50 46.00 C17.33 46.00 18.00 45.33 18.00 44.50 C18.00 43.67 17.33 43.00 16.50 43.00 C16.50 43.00 8.50 43.00 8.50 43.00 Z M8.50 37.00 C7.67 37.00 7.00 37.67 7.00 38.50 C7.00 39.33 7.67 40.00 8.50 40.00 C8.50 40.00 16.50 40.00 16.50 40.00 C17.33 40.00 18.00 39.33 18.00 38.50 C18.00 37.67 17.33 37.00 16.50 37.00 C16.50 37.00 8.50 37.00 8.50 37.00 Z M8.50 31.00 C7.67 31.00 7.00 31.67 7.00 32.50 C7.00 33.33 7.67 34.00 8.50 34.00 C8.50 34.00 16.50 34.00 16.50 34.00 C17.33 34.00 18.00 33.33 18.00 32.50 C18.00 31.67 17.33 31.00 16.50 31.00 C16.50 31.00 8.50 31.00 8.50 31.00 Z M8.50 25.00 C7.67 25.00 7.00 25.67 7.00 26.50 C7.00 27.33 7.67 28.00 8.50 28.00 C8.50 28.00 16.50 28.00 16.50 28.00 C17.33 28.00 18.00 27.33 18.00 26.50 C18.00 25.67 17.33 25.00 16.50 25.00 C16.50 25.00 8.50 25.00 8.50 25.00 Z M8.50 19.00 C7.67 19.00 7.00 19.67 7.00 20.50 C7.00 21.33 7.67 22.00 8.50 22.00 C8.50 22.00 16.50 22.00 16.50 22.00 C17.33 22.00 18.00 21.33 18.00 20.50 C18.00 19.67 17.33 19.00 16.50 19.00 C16.50 19.00 8.50 19.00 8.50 19.00 Z"/>
<path fill="rgb(246,137,0)" fill-rule="evenodd" d="M81.00 22.00 C81.00 22.00 81.00 70.00 81.00 70.00 C81.00 70.00 28.00 70.00 28.00 70.00 C28.00 70.00 28.00 56.00 28.00 56.00 C28.00 56.00 26.00 56.00 26.00 56.00 C26.00 56.00 26.00 70.00 26.00 70.00 C26.00 70.00 26.00 71.00 26.00 71.00 C26.00 71.00 26.00 72.00 26.00 72.00 C26.00 72.00 81.00 72.00 81.00 72.00 C81.00 72.00 83.00 72.00 83.00 72.00 C83.00 72.00 83.00 70.00 83.00 70.00 C83.00 70.00 83.00 22.00 83.00 22.00 C83.00 22.00 81.00 22.00 81.00 22.00 Z"/>
<path fill="rgb(75,97,184)" fill-rule="evenodd" d="M2.00 14.00 C2.00 14.00 53.00 14.00 53.00 14.00 C53.00 14.00 53.00 54.00 53.00 54.00 C53.00 54.00 2.00 54.00 2.00 54.00 C2.00 54.00 2.00 14.00 2.00 14.00 Z M-0.00 -0.00 C-0.00 -0.00 -0.00 1.00 -0.00 1.00 C-0.00 1.00 -0.00 14.00 -0.00 14.00 C-0.00 14.00 -0.00 54.00 -0.00 54.00 C-0.00 54.00 -0.00 56.00 -0.00 56.00 C-0.00 56.00 2.00 56.00 2.00 56.00 C2.00 56.00 53.00 56.00 53.00 56.00 C53.00 56.00 55.00 56.00 55.00 56.00 C55.00 56.00 55.00 54.00 55.00 54.00 C55.00 54.00 55.00 14.00 55.00 14.00 C55.00 14.00 55.00 1.00 55.00 1.00 C55.00 1.00 55.00 -0.00 55.00 -0.00 C55.00 -0.00 -0.00 -0.00 -0.00 -0.00 Z"/>
<path fill="rgb(255,255,255)" fill-rule="evenodd" d="M7.75 2.25 C7.75 2.25 10.94 6.51 10.94 6.51 C10.94 6.51 7.00 11.25 7.00 11.25 C7.00 11.25 9.25 11.25 9.25 11.25 C9.25 11.25 10.00 11.25 10.00 11.25 C10.00 11.25 12.25 11.25 12.25 11.25 C12.25 11.25 12.25 9.75 12.25 9.75 C12.25 9.75 10.00 9.75 10.00 9.75 C10.00 9.75 11.84 7.70 11.84 7.70 C11.84 7.70 14.50 11.25 14.50 11.25 C14.50 11.25 17.50 11.25 17.50 11.25 C17.50 11.25 13.24 6.14 13.24 6.14 C13.24 6.14 16.75 2.25 16.75 2.25 C16.75 2.25 14.50 2.25 14.50 2.25 C14.50 2.25 12.25 4.95 12.25 4.95 C12.25 4.95 10.00 2.25 10.00 2.25 C10.00 2.25 7.75 2.25 7.75 2.25 Z"/>
</g>
</svg>