<?xml version="1.0" encoding="utf-8"?>
<svg xmlns="http://www.w3.org/2000/svg"
	xmlns:xlink="http://www.w3.org/1999/xlink"
	width="77px" height="45px">
<g>
<path fill="rgb(255,255,255)" fill-rule="evenodd" d="M42.58 18.98 C42.86 18.63 43.09 18.07 43.26 17.31 C43.26 17.31 43.34 16.81 43.34 16.81 C43.36 16.68 43.37 16.53 43.37 16.36 C43.37 15.14 42.71 14.52 41.40 14.52 C41.40 14.52 35.54 14.52 35.54 14.52 C35.54 14.52 35.47 14.86 35.47 14.86 C35.57 14.86 35.66 14.90 35.74 14.98 C35.83 15.06 35.86 15.14 35.85 15.22 C35.85 15.22 34.13 22.59 34.13 22.59 C34.11 22.68 34.10 22.75 34.10 22.80 C34.10 22.93 34.14 23.04 34.21 23.12 C34.28 23.20 34.39 23.24 34.53 23.24 C34.53 23.24 38.03 23.24 38.03 23.24 C38.03 23.24 38.10 22.90 38.10 22.90 C37.99 22.90 37.90 22.88 37.82 22.82 C37.75 22.77 37.72 22.70 37.72 22.61 C37.72 22.61 37.73 22.48 37.73 22.48 C37.73 22.48 38.27 20.01 38.27 20.01 C38.27 20.01 39.01 22.60 39.01 22.60 C39.05 22.77 39.15 22.92 39.31 23.05 C39.47 23.17 39.66 23.24 39.88 23.24 C39.88 23.24 41.57 23.24 41.57 23.24 C42.10 23.24 42.40 23.04 42.49 22.64 C42.49 22.64 42.79 21.20 42.79 21.20 C42.79 21.20 42.42 21.23 42.42 21.23 C42.29 21.23 42.18 21.19 42.08 21.12 C41.98 21.05 41.90 20.96 41.84 20.86 C41.84 20.86 41.40 19.69 41.40 19.69 C41.91 19.58 42.31 19.34 42.58 18.98 Z M39.63 16.53 C39.83 16.53 39.93 16.65 39.93 16.89 C39.93 16.95 39.92 17.02 39.90 17.11 C39.90 17.11 39.85 17.38 39.85 17.38 C39.74 17.86 39.55 18.10 39.26 18.10 C39.26 18.10 38.77 18.10 38.77 18.10 C38.77 18.10 39.13 16.53 39.13 16.53 C39.13 16.53 39.63 16.53 39.63 16.53 Z M33.55 14.94 C33.55 14.80 33.52 14.70 33.46 14.63 C33.39 14.56 33.29 14.52 33.15 14.52 C33.15 14.52 29.63 14.52 29.63 14.52 C29.63 14.52 29.57 14.86 29.57 14.86 C29.66 14.86 29.75 14.90 29.83 14.99 C29.92 15.08 29.95 15.16 29.93 15.25 C29.93 15.25 28.20 22.63 28.20 22.63 C28.20 22.63 28.18 22.84 28.18 22.84 C28.18 23.10 28.31 23.24 28.58 23.24 C28.58 23.24 32.10 23.24 32.10 23.24 C32.10 23.24 32.19 22.90 32.19 22.90 C32.09 22.90 32.00 22.86 31.91 22.77 C31.81 22.68 31.78 22.60 31.79 22.51 C31.79 22.51 33.53 15.13 33.53 15.13 C33.53 15.13 33.55 14.94 33.55 14.94 Z M21.80 14.61 C21.70 14.66 21.63 14.75 21.60 14.86 C21.60 14.86 21.10 16.86 21.10 16.86 C21.10 16.86 21.41 16.86 21.41 16.86 C21.45 16.76 21.51 16.69 21.60 16.63 C21.68 16.57 21.79 16.53 21.93 16.53 C21.93 16.53 22.80 16.53 22.80 16.53 C22.80 16.53 21.37 22.63 21.37 22.63 C21.37 22.63 21.35 22.83 21.35 22.83 C21.35 23.10 21.48 23.24 21.75 23.24 C21.75 23.24 25.27 23.24 25.27 23.24 C25.27 23.24 25.36 22.90 25.36 22.90 C25.26 22.90 25.17 22.86 25.08 22.77 C24.99 22.68 24.95 22.60 24.97 22.51 C24.97 22.51 26.38 16.53 26.38 16.53 C26.38 16.53 27.13 16.53 27.13 16.53 C27.54 16.53 27.79 16.40 27.88 16.13 C27.88 16.13 28.38 14.19 28.38 14.19 C28.38 14.19 28.09 14.19 28.09 14.19 C28.06 14.30 27.98 14.38 27.85 14.44 C27.72 14.50 27.59 14.52 27.46 14.52 C27.46 14.52 22.28 14.52 22.28 14.52 C22.06 14.52 21.90 14.55 21.80 14.61 Z"/>
<path fill="rgb(246,138,2)" fill-rule="evenodd" d="M60.00 16.00 C60.55 16.00 61.00 15.55 61.00 15.00 C61.00 14.45 60.55 14.00 60.00 14.00 C60.00 14.00 56.00 14.00 56.00 14.00 C55.45 14.00 55.00 14.45 55.00 15.00 C55.00 15.55 55.45 16.00 56.00 16.00 C56.00 16.00 60.00 16.00 60.00 16.00 Z M58.00 38.01 C56.90 38.01 56.00 38.90 56.00 40.00 C56.00 41.10 56.90 41.99 58.00 41.99 C59.10 41.99 60.00 41.10 60.00 40.00 C60.00 38.90 59.10 38.01 58.00 38.01 Z"/>
<path fill="rgb(139,148,147)" fill-rule="evenodd" d="M57.00 2.00 C57.00 2.00 57.00 11.00 57.00 11.00 C57.00 11.00 48.00 11.00 48.00 11.00 C46.34 11.00 45.00 12.34 45.00 14.00 C45.00 14.00 45.00 40.00 45.00 40.00 C45.00 40.00 7.00 40.00 7.00 40.00 C7.00 40.00 7.00 2.00 7.00 2.00 C7.00 2.00 57.00 2.00 57.00 2.00 Z M1.00 43.00 C0.45 43.00 -0.00 43.45 -0.00 44.00 C-0.00 44.55 0.45 45.00 1.00 45.00 C1.00 45.00 48.00 45.00 48.00 45.00 C48.00 45.00 61.00 45.00 61.00 45.00 C61.00 45.00 68.00 45.00 68.00 45.00 C69.16 45.00 70.17 44.34 70.66 43.38 C70.66 43.38 67.83 43.38 67.83 43.38 C67.51 43.38 67.22 43.23 67.03 43.00 C67.03 43.00 65.00 43.00 65.00 43.00 C65.00 43.00 52.00 43.00 52.00 43.00 C52.00 43.00 48.00 43.00 48.00 43.00 C47.45 43.00 47.00 42.55 47.00 42.00 C47.00 42.00 47.00 14.00 47.00 14.00 C47.00 13.45 47.45 13.00 48.00 13.00 C48.00 13.00 52.00 13.00 52.00 13.00 C52.00 13.00 65.00 13.00 65.00 13.00 C65.00 13.00 68.00 13.00 68.00 13.00 C68.55 13.00 69.00 13.45 69.00 14.00 C69.00 14.00 69.00 25.62 69.00 25.62 C69.00 25.62 71.00 25.62 71.00 25.62 C71.00 25.62 71.00 14.00 71.00 14.00 C71.00 12.34 69.66 11.00 68.00 11.00 C68.00 11.00 59.00 11.00 59.00 11.00 C59.00 11.00 59.00 2.00 59.00 2.00 C59.00 0.90 58.10 -0.00 57.00 -0.00 C57.00 -0.00 7.00 -0.00 7.00 -0.00 C5.90 -0.00 5.00 0.90 5.00 2.00 C5.00 2.00 5.00 40.00 5.00 40.00 C5.00 41.10 5.90 42.00 7.00 42.00 C7.00 42.00 45.00 42.00 45.00 42.00 C45.00 42.35 45.06 42.69 45.17 43.00 C45.17 43.00 1.00 43.00 1.00 43.00 Z"/>
<path fill="rgb(246,138,2)" fill-rule="evenodd" d="M74.00 45.00 C74.00 45.00 67.99 45.00 67.99 45.00 C66.34 45.00 64.99 43.66 64.99 42.00 C64.99 42.00 64.99 27.00 64.99 27.00 C64.99 25.34 66.34 24.00 67.99 24.00 C67.99 24.00 74.00 24.00 74.00 24.00 C75.66 24.00 77.00 25.34 77.00 27.00 C77.00 27.00 77.00 42.00 77.00 42.00 C77.00 43.66 75.66 45.00 74.00 45.00 Z M75.00 27.00 C75.00 26.45 74.55 26.00 74.00 26.00 C74.00 26.00 67.99 26.00 67.99 26.00 C67.44 26.00 66.99 26.45 66.99 27.00 C66.99 27.00 66.99 42.00 66.99 42.00 C66.99 42.55 67.44 43.00 67.99 43.00 C67.99 43.00 74.00 43.00 74.00 43.00 C74.55 43.00 75.00 42.55 75.00 42.00 C75.00 42.00 75.00 27.00 75.00 27.00 Z"/>
<path fill="rgb(139,148,147)" fill-rule="evenodd" d="M69.00 27.00 C69.00 27.00 69.00 28.00 69.00 28.00 C69.00 28.00 73.00 28.00 73.00 28.00 C73.00 28.00 73.00 27.00 73.00 27.00 C73.00 27.00 69.00 27.00 69.00 27.00 Z M70.00 41.00 C70.00 41.55 70.45 42.00 71.00 42.00 C71.55 42.00 72.00 41.55 72.00 41.00 C72.00 40.45 71.55 40.00 71.00 40.00 C70.45 40.00 70.00 40.45 70.00 41.00 Z"/>
</g>
</svg>