<?xml version="1.0" encoding="utf-8"?>
<!-- Generator: Adobe Illustrator 17.0.0, SVG Export Plug-In . SVG Version: 6.00 Build 0)  -->
<!DOCTYPE svg PUBLIC "-//W3C//DTD SVG 1.1//EN" "http://www.w3.org/Graphics/SVG/1.1/DTD/svg11.dtd">
<svg version="1.1" id="Layer_1" xmlns="http://www.w3.org/2000/svg" xmlns:xlink="http://www.w3.org/1999/xlink" x="0px" y="0px"
	 width="120px" height="120px" viewBox="0 0 120 120" enable-background="new 0 0 120 120" xml:space="preserve">
<filter  height="108.33%" width="116.00%" filterUnits="objectBoundingBox" id="filter0" x="-8.00%" y="-4.17%">
	<feGaussianBlur  in="SourceAlpha" result="ogBlurOut" stdDeviation="1.00"></feGaussianBlur>
	<feFlood  flood-color="rgb(246,137,0)" result="ogFloodOut"></feFlood>
	<feComposite  operator="atop" in="ogFloodOut" result="ogRawGlow" in2="ogBlurOut"></feComposite>
	<feComponentTransfer  in="ogRawGlow" result="ogRawGlowOpacity">
		<feFuncA  type="linear" slope="1.00"></feFuncA>
	</feComponentTransfer>
	<feComposite  operator="out" in="ogRawGlowOpacity" result="outerGlow" in2="SourceAlpha"></feComposite>
</filter>
<g>
	<path fill="#4B61B8" d="M0,60C0,26.86,26.86,0,60,0s60,26.86,60,60s-26.86,60-60,60S0,93.14,0,60z"/>
	<g>
		<g>
			<path id="symbol0" fill="#4B61B8" d="M75.5,97h2V83c5.12-10.75,2-20,2-20s-6.32-16.13-6.63-16.5L70,44H55l6,19
				c-0.5,1-17.5,11-17.5,11s0.12,3.37,1,6c0.87,2.62,10,12,10,12v5h22"/>
		</g>
		<g>
			<defs>
				<path id="SVGID_1_" d="M39.5,101V40h44.94v61H39.5z M79.5,63c0,0-6.32-16.13-6.63-16.5L70,44H55l6,19c-0.5,1-17.5,11-17.5,11
					s0.12,3.37,1,6c0.87,2.62,10,12,10,12v5h21h1h1V83C82.62,72.25,79.5,63,79.5,63z"/>
			</defs>
			<clipPath id="SVGID_2_">
				<use xlink:href="#SVGID_1_"  overflow="visible"/>
			</clipPath>
			<g clip-path="url(#SVGID_2_)">
				<path id="symbol0_1_" fill="none" stroke="#FFFFFF" stroke-width="4" d="M75.5,97h2V83c5.12-10.75,2-20,2-20
					s-6.32-16.13-6.63-16.5L70,44H55l6,19c-0.5,1-17.5,11-17.5,11s0.12,3.37,1,6c0.87,2.62,10,12,10,12v5h22"/>
			</g>
		</g>
	</g>
	<g>
		<g>
			<path id="symbol1" fill="#4B61B8" d="M39,44.5L39,44.5c0.83-0.83,2.1-0.9,2.83-0.17l4.34,4.34c0.73,0.73,0.66,2-0.17,2.83l0,0
				c-0.83,0.83-2.1,0.9-2.83,0.17l-4.34-4.34C38.1,46.6,38.17,45.33,39,44.5z"/>
		</g>
		<g>
			<defs>
				<path id="SVGID_3_" d="M34.31,56.19V39.81h16.38v16.38H34.31z M46.17,48.67l-4.34-4.34c-0.73-0.73-2-0.66-2.83,0.17
					s-0.9,2.1-0.17,2.83l4.34,4.34c0.73,0.73,2,0.66,2.83-0.17S46.9,49.4,46.17,48.67z"/>
			</defs>
			<clipPath id="SVGID_4_">
				<use xlink:href="#SVGID_3_"  overflow="visible"/>
			</clipPath>
			<g clip-path="url(#SVGID_4_)">
				<path id="symbol1_1_" fill="none" stroke="#FFFFFF" stroke-width="4" d="M39,44.5L39,44.5c0.83-0.83,2.1-0.9,2.83-0.17
					l4.34,4.34c0.73,0.73,0.66,2-0.17,2.83l0,0c-0.83,0.83-2.1,0.9-2.83,0.17l-4.34-4.34C38.1,46.6,38.17,45.33,39,44.5z"/>
			</g>
		</g>
	</g>
	<g>
		<g filter="url(#filter0)">
			<path id="symbol2_2_" d="M48.87,29h17c2.209,0,4,1.791,4,4v40c0,2.209-1.791,4-4,4h-17c-2.209,0-4-1.791-4-4V33
				C44.87,30.791,46.661,29,48.87,29z"/>
		</g>
		<g>
			<path id="symbol2_1_" fill="#4B61B8" d="M48,29h17c2.209,0,4,1.791,4,4v40c0,2.209-1.791,4-4,4H48c-2.209,0-4-1.791-4-4V33
				C44,30.791,45.791,29,48,29z"/>
		</g>
	</g>
	<path fill="#F68900" d="M55.5,73c0,1.1,0.9,2,2,2s2-0.9,2-2s-0.9-2-2-2S55.5,71.9,55.5,73z M55,31c-0.55,0-1,0.45-1,1s0.45,1,1,1h6
		c0.55,0,1-0.45,1-1s-0.45-1-1-1H55z"/>
	<path fill="#4B61B8" d="M43.5,57h2l4,20h-4v1h-2V57z"/>
	<g>
		<g>
			<path id="symbol3" fill="#4B61B8" d="M39,53.5L39,53.5c0.83-0.83,2.1-0.9,2.83-0.17l4.34,4.34c0.73,0.73,0.66,2-0.17,2.83l0,0
				c-0.83,0.83-2.1,0.9-2.83,0.17l-4.34-4.34C38.1,55.6,38.17,54.33,39,53.5z"/>
		</g>
		<g>
			<defs>
				<path id="SVGID_5_" d="M34.31,65.19V48.81h16.38v16.38H34.31z M46.17,57.67l-4.34-4.34c-0.73-0.73-2-0.66-2.83,0.17
					s-0.9,2.1-0.17,2.83l4.34,4.34c0.73,0.73,2,0.66,2.83-0.17S46.9,58.4,46.17,57.67z"/>
			</defs>
			<clipPath id="SVGID_6_">
				<use xlink:href="#SVGID_5_"  overflow="visible"/>
			</clipPath>
			<g clip-path="url(#SVGID_6_)">
				<path id="symbol3_1_" fill="none" stroke="#FFFFFF" stroke-width="4" d="M39,53.5L39,53.5c0.83-0.83,2.1-0.9,2.83-0.17
					l4.34,4.34c0.73,0.73,0.66,2-0.17,2.83l0,0c-0.83,0.83-2.1,0.9-2.83,0.17l-4.34-4.34C38.1,55.6,38.17,54.33,39,53.5z"/>
			</g>
		</g>
	</g>
	<g>
		<g>
			<path id="symbol4" fill="#4B61B8" d="M39,61.5L39,61.5c0.83-0.83,2.1-0.9,2.83-0.17l4.34,4.34c0.73,0.73,0.66,2-0.17,2.83l0,0
				c-0.83,0.83-2.1,0.9-2.83,0.17l-4.34-4.34C38.1,63.6,38.17,62.33,39,61.5z"/>
		</g>
		<g>
			<defs>
				<path id="SVGID_7_" d="M34.31,73.19V56.81h16.38v16.38H34.31z M46.17,65.67l-4.34-4.34c-0.73-0.73-2-0.66-2.83,0.17
					s-0.9,2.1-0.17,2.83l4.34,4.34c0.73,0.73,2,0.66,2.83-0.17S46.9,66.4,46.17,65.67z"/>
			</defs>
			<clipPath id="SVGID_8_">
				<use xlink:href="#SVGID_7_"  overflow="visible"/>
			</clipPath>
			<g clip-path="url(#SVGID_8_)">
				<path id="symbol4_1_" fill="none" stroke="#FFFFFF" stroke-width="4" d="M39,61.5L39,61.5c0.83-0.83,2.1-0.9,2.83-0.17
					l4.34,4.34c0.73,0.73,0.66,2-0.17,2.83l0,0c-0.83,0.83-2.1,0.9-2.83,0.17l-4.34-4.34C38.1,63.6,38.17,62.33,39,61.5z"/>
			</g>
		</g>
	</g>
	<g>
		<g>
			<path id="symbol5" fill="#4B61B8" d="M39,68.5L39,68.5c0.83-0.83,2.1-0.9,2.83-0.17l4.34,4.34c0.73,0.73,0.66,2-0.17,2.83l0,0
				c-0.83,0.83-2.1,0.9-2.83,0.17l-4.34-4.34C38.1,70.6,38.17,69.33,39,68.5z"/>
		</g>
		<g>
			<defs>
				<path id="SVGID_9_" d="M34.31,80.19V63.81h16.38v16.38H34.31z M46.17,72.67l-4.34-4.34c-0.73-0.73-2-0.66-2.83,0.17
					s-0.9,2.1-0.17,2.83l4.34,4.34c0.73,0.73,2,0.66,2.83-0.17S46.9,73.4,46.17,72.67z"/>
			</defs>
			<clipPath id="SVGID_10_">
				<use xlink:href="#SVGID_9_"  overflow="visible"/>
			</clipPath>
			<g clip-path="url(#SVGID_10_)">
				<path id="symbol5_1_" fill="none" stroke="#FFFFFF" stroke-width="4" d="M39,68.5L39,68.5c0.83-0.83,2.1-0.9,2.83-0.17
					l4.34,4.34c0.73,0.73,0.66,2-0.17,2.83l0,0c-0.83,0.83-2.1,0.9-2.83,0.17l-4.34-4.34C38.1,70.6,38.17,69.33,39,68.5z"/>
			</g>
		</g>
	</g>
	<rect x="49" y="96" fill="#4B61B8" width="33" height="4"/>
	<path fill="#FFFFFF" d="M64.3,51.57c0.19-0.23,0.34-0.61,0.45-1.12c0.01-0.08,0.03-0.19,0.06-0.33c0.01-0.09,0.02-0.19,0.02-0.3
		c0-0.82-0.44-1.23-1.32-1.23h-3.92l-0.05,0.22c0.06,0,0.13,0.03,0.18,0.08c0.06,0.05,0.08,0.11,0.07,0.17l-1.15,4.93
		c-0.01,0.06-0.02,0.1-0.02,0.14c0,0.09,0.03,0.16,0.07,0.21c0.05,0.06,0.12,0.08,0.22,0.08h2.34l0.05-0.22
		c-0.08,0-0.14-0.02-0.19-0.06c-0.04-0.03-0.07-0.08-0.07-0.14l0.01-0.08l0.37-1.66l0.49,1.73c0.02,0.12,0.09,0.22,0.2,0.3
		c0.11,0.09,0.23,0.13,0.38,0.13h1.14c0.35,0,0.55-0.13,0.61-0.4l0.2-0.96l-0.25,0.02c-0.08,0-0.16-0.03-0.23-0.08
		c-0.06-0.04-0.12-0.1-0.16-0.17l-0.29-0.78C63.85,51.97,64.12,51.81,64.3,51.57z M62.32,49.93c0.14,0,0.2,0.08,0.2,0.24
		c0,0.04,0,0.09-0.01,0.15l-0.04,0.18c-0.07,0.32-0.2,0.48-0.39,0.48h-0.33l0.24-1.05H62.32z M58.26,48.86
		c0-0.08-0.03-0.15-0.07-0.2c-0.04-0.05-0.11-0.07-0.21-0.07h-2.35l-0.04,0.22c0.06,0,0.12,0.03,0.17,0.09
		c0.06,0.06,0.08,0.12,0.07,0.17l-1.16,4.95c-0.01,0.07-0.01,0.11-0.01,0.13c0,0.18,0.09,0.27,0.27,0.27h2.35l0.06-0.22
		c-0.06,0-0.12-0.03-0.19-0.09c-0.06-0.06-0.08-0.12-0.07-0.17l1.16-4.95L58.26,48.86z M50.39,48.64c-0.07,0.04-0.11,0.1-0.14,0.17
		l-0.34,1.34h0.22c0.02-0.06,0.06-0.11,0.12-0.16c0.06-0.04,0.13-0.06,0.22-0.06h0.59l-0.96,4.09c-0.01,0.06-0.02,0.11-0.02,0.13
		c0,0.18,0.09,0.27,0.27,0.27h2.36l0.06-0.22c-0.06,0-0.13-0.03-0.19-0.09c-0.06-0.06-0.09-0.12-0.07-0.17l0.94-4.01h0.5
		c0.28,0,0.45-0.09,0.5-0.27l0.34-1.3H54.6c-0.03,0.08-0.08,0.13-0.16,0.17c-0.09,0.04-0.18,0.06-0.27,0.06h-3.46
		C50.56,48.59,50.46,48.61,50.39,48.64z"/>
	<rect x="50" y="54" fill="#4B61B8" width="16" height="3"/>
	<rect x="50" y="46" fill="#4B61B8" width="16" height="3"/>
	<path fill="#4B61B8" d="M74,63l-5-11v-8h4L74,63z"/>
	<path fill="#FFFFFF" d="M73.44,58.81c0,0,0.62,1.02-0.19,1.56C72.5,60.87,72,60,72,60l-5-12c0,0-1.53-3.52,2-5
		c3.12-1.31,4.62,0.37,5.44,1.94c0,0,0.31,0.68-0.44,1.06c-0.75,0.37-1,0-1,0s-1.38-2.32-3.38-1.38c-1.31,0.63-1.21,2.1-0.75,3.19
		L73.44,58.81z"/>
</g>
</svg>
