<?xml version="1.0" encoding="utf-8"?>
<svg xmlns="http://www.w3.org/2000/svg"
	xmlns:xlink="http://www.w3.org/1999/xlink"
	width="39px" height="41px">
<path fill="rgb(85,110,204)" fill-rule="evenodd" d="M22.25 39.86 C22.25 39.86 22.14 39.55 22.14 39.55 C22.14 39.55 19.50 31.86 19.50 31.86 C19.50 31.86 16.75 39.86 16.75 39.86 C16.75 39.86 17.92 40.11 19.50 40.11 C20.73 40.11 21.71 39.96 22.08 39.89 C22.08 39.89 22.25 39.86 22.25 39.86 Z M19.48 27.63 C19.48 27.63 19.51 27.63 19.51 27.63 C19.51 27.63 19.50 27.61 19.50 27.61 C19.50 27.61 19.48 27.63 19.48 27.63 Z M19.48 27.63 C19.48 27.63 17.50 29.86 17.50 29.86 C17.50 29.86 19.50 31.86 19.50 31.86 C19.50 31.86 21.50 29.86 21.50 29.86 C21.50 29.86 19.51 27.63 19.51 27.63 C19.51 27.63 19.48 27.63 19.48 27.63 Z M19.37 27.61 C19.37 27.61 19.48 27.63 19.48 27.63 C19.48 27.63 19.50 27.61 19.50 27.61 C19.50 27.61 19.51 27.63 19.51 27.63 C21.60 27.83 24.62 25.11 24.62 25.11 C24.62 25.11 22.14 39.55 22.14 39.55 C22.14 39.55 22.25 39.86 22.25 39.86 C22.25 39.86 22.08 39.89 22.08 39.89 C22.08 39.89 22.01 40.30 22.01 40.30 C25.70 40.07 32.41 39.62 34.88 39.22 C37.65 38.77 37.89 36.21 37.89 36.21 C38.15 35.36 38.25 31.15 38.25 31.15 C38.19 29.81 37.49 28.56 35.59 27.73 C29.58 25.14 24.27 24.73 24.27 24.73 C24.27 24.73 24.45 21.55 24.45 21.55 C26.07 20.76 26.22 19.25 26.22 19.25 C26.22 19.25 26.27 18.07 26.44 16.30 C26.52 16.63 26.70 16.96 27.10 16.96 C27.94 16.96 27.98 16.25 27.98 16.25 C27.98 16.25 28.29 12.43 28.34 12.01 C28.38 11.59 28.29 11.22 27.81 11.13 C27.48 11.06 27.27 11.14 27.14 11.26 C27.14 11.26 27.15 11.21 27.15 11.21 C27.69 8.26 27.83 5.33 26.75 3.88 C24.13 0.38 19.50 0.53 19.50 0.53 C19.50 0.53 14.87 0.38 12.25 3.88 C11.17 5.33 11.31 8.26 11.85 11.21 C11.85 11.21 11.86 11.26 11.86 11.26 C11.73 11.14 11.52 11.06 11.19 11.13 C10.71 11.22 10.62 11.59 10.66 12.01 C10.70 12.43 11.01 16.25 11.01 16.25 C11.01 16.25 11.06 16.96 11.90 16.96 C12.30 16.96 12.48 16.63 12.56 16.29 C12.73 18.06 12.78 19.25 12.78 19.25 C12.78 19.25 12.93 20.76 14.55 21.55 C14.55 21.55 14.73 24.73 14.73 24.73 C14.73 24.73 9.42 25.14 3.41 27.73 C1.51 28.56 0.81 29.81 0.74 31.15 C0.74 31.15 0.85 35.36 1.11 36.21 C1.11 36.21 1.35 38.77 4.12 39.22 C6.53 39.61 13.00 40.05 16.73 40.28 C16.73 40.28 14.12 25.11 14.12 25.11 C14.12 25.11 17.29 27.95 19.37 27.61 Z"/>
</svg>