<?xml version="1.0" encoding="utf-8"?>
<svg xmlns="http://www.w3.org/2000/svg"
	xmlns:xlink="http://www.w3.org/1999/xlink"
	width="43px" height="47px">
<g>
<path fill="rgb(85,110,204)" fill-rule="evenodd" d="M7.91 22.62 C8.40 21.74 9.11 21.27 9.50 21.56 C9.89 21.85 9.81 22.80 9.33 23.68 C8.84 24.55 8.13 25.03 7.74 24.73 C7.34 24.44 7.42 23.49 7.91 22.62 Z M39.89 28.06 C40.99 27.65 41.93 27.09 42.36 26.32 C43.86 23.68 42.01 21.39 42.01 21.39 C41.88 24.40 40.31 25.27 39.57 25.52 C38.68 21.80 36.03 18.58 32.32 16.43 C31.62 17.05 30.83 17.58 29.97 17.98 C30.70 18.31 31.06 18.57 31.06 18.57 C31.88 19.04 32.71 19.74 32.12 20.68 C31.53 21.62 30.00 21.39 30.00 21.39 C25.34 18.33 18.69 18.92 18.69 18.92 C17.16 18.86 17.33 17.80 17.33 17.80 C17.45 16.63 18.69 16.45 18.69 16.45 C18.69 16.45 19.17 16.42 19.17 16.42 C18.40 15.73 17.74 14.93 17.22 14.04 C16.08 14.26 14.98 14.56 13.93 14.93 C13.66 14.59 13.35 14.25 13.04 13.99 C11.89 13.02 8.80 13.28 8.80 13.28 C8.80 13.28 8.80 17.71 8.80 17.71 C6.47 19.49 4.72 21.75 3.83 24.29 C3.83 24.29 2.97 24.29 2.97 24.29 C1.36 24.29 0.05 25.59 0.05 27.20 C0.05 27.20 0.05 29.14 0.05 29.14 C0.05 30.74 1.36 32.04 2.97 32.04 C2.97 32.04 3.76 32.04 3.76 32.04 C4.64 34.66 6.41 36.99 8.80 38.81 C8.80 38.81 8.80 43.14 8.80 43.14 C8.80 44.75 10.10 46.05 11.71 46.05 C11.71 46.05 13.65 46.05 13.65 46.05 C15.26 46.05 16.57 44.75 16.57 43.14 C16.57 43.14 16.57 42.34 16.57 42.34 C18.14 42.69 19.80 42.88 21.52 42.88 C23.62 42.88 25.64 42.60 27.52 42.08 C27.52 42.08 27.52 43.14 27.52 43.14 C27.52 44.75 28.83 46.05 30.44 46.05 C30.44 46.05 32.38 46.05 32.38 46.05 C33.99 46.05 35.30 44.75 35.30 43.14 C35.30 43.14 35.30 37.93 35.30 37.93 C38.16 35.35 39.89 31.96 39.89 28.26 C39.89 28.26 39.89 28.06 39.89 28.06 Z"/>
<path fill="rgb(85,110,204)" fill-rule="evenodd" d="M17.63 9.05 C17.63 4.58 21.27 0.95 25.76 0.95 C30.24 0.95 33.88 4.58 33.88 9.05 C33.88 13.53 30.24 17.16 25.76 17.16 C21.27 17.16 17.63 13.53 17.63 9.05 Z"/>
<path fill="rgb(255,255,255)" fill-rule="evenodd" d="M24.64 13.63 C24.64 13.63 26.08 13.63 26.08 13.63 C26.08 13.63 26.08 12.98 26.08 12.98 C26.66 12.85 27.10 12.60 27.41 12.24 C27.72 11.88 27.88 11.44 27.88 10.91 C27.88 10.51 27.79 10.18 27.63 9.90 C27.46 9.63 27.25 9.40 27.00 9.21 C26.74 9.02 26.47 8.86 26.18 8.72 C25.89 8.58 25.62 8.44 25.36 8.31 C25.11 8.17 24.90 8.01 24.73 7.85 C24.57 7.68 24.49 7.47 24.49 7.22 C24.49 7.09 24.51 6.97 24.57 6.86 C24.62 6.74 24.70 6.64 24.80 6.54 C24.90 6.45 25.02 6.37 25.15 6.32 C25.28 6.26 25.43 6.23 25.60 6.23 C25.84 6.23 26.06 6.26 26.25 6.32 C26.44 6.37 26.60 6.43 26.72 6.49 C26.86 6.57 26.98 6.65 27.08 6.74 C27.08 6.74 27.19 6.74 27.19 6.74 C27.19 6.74 27.67 5.90 27.67 5.90 C27.55 5.84 27.42 5.78 27.26 5.71 C27.13 5.67 26.96 5.62 26.77 5.56 C26.57 5.51 26.34 5.48 26.08 5.45 C26.08 5.45 26.08 4.83 26.08 4.83 C26.08 4.83 24.64 4.83 24.64 4.83 C24.64 4.83 24.64 5.50 24.64 5.50 C24.11 5.64 23.70 5.88 23.42 6.23 C23.14 6.59 23.00 7.00 23.00 7.45 C23.00 7.86 23.08 8.19 23.25 8.46 C23.42 8.74 23.62 8.97 23.88 9.15 C24.13 9.34 24.40 9.51 24.70 9.64 C24.98 9.78 25.26 9.92 25.51 10.06 C25.77 10.19 25.98 10.35 26.14 10.51 C26.31 10.68 26.39 10.89 26.39 11.14 C26.39 11.47 26.28 11.73 26.07 11.93 C25.86 12.13 25.54 12.23 25.12 12.23 C24.83 12.23 24.60 12.20 24.40 12.15 C24.20 12.10 24.03 12.04 23.91 11.98 C23.76 11.91 23.64 11.83 23.53 11.73 C23.53 11.73 23.43 11.73 23.43 11.73 C23.43 11.73 22.95 12.57 22.95 12.57 C23.06 12.64 23.19 12.70 23.36 12.76 C23.50 12.82 23.67 12.87 23.88 12.92 C24.09 12.97 24.34 13.01 24.64 13.03 C24.64 13.03 24.64 13.63 24.64 13.63 C24.64 13.63 24.64 13.63 24.64 13.63 Z"/>
</g>
</svg>