<?xml version="1.0" encoding="utf-8"?>
<svg xmlns="http://www.w3.org/2000/svg"
	xmlns:xlink="http://www.w3.org/1999/xlink"
	width="120px" height="120px">
<g>
<path fill="rgb(75,97,184)" fill-rule="evenodd" d="M-0.00 60.00 C-0.00 26.86 26.86 -0.00 60.00 -0.00 C93.14 -0.00 120.00 26.86 120.00 60.00 C120.00 93.14 93.14 120.00 60.00 120.00 C26.86 120.00 -0.00 93.14 -0.00 60.00 Z"/>
<path fill="rgb(246,137,0)" fill-rule="evenodd" d="M70.00 76.00 C70.00 76.00 70.00 73.00 70.00 73.00 C70.00 73.00 75.00 73.00 75.00 73.00 C75.00 73.00 75.00 76.00 75.00 76.00 C75.00 76.00 70.00 76.00 70.00 76.00 Z M64.00 76.00 C64.00 76.00 64.00 73.00 64.00 73.00 C64.00 73.00 69.00 73.00 69.00 73.00 C69.00 73.00 69.00 76.00 69.00 76.00 C69.00 76.00 64.00 76.00 64.00 76.00 Z M63.00 72.00 C63.00 72.00 63.00 73.00 63.00 73.00 C63.00 73.00 63.00 76.00 63.00 76.00 C63.00 76.00 63.00 77.00 63.00 77.00 C63.00 77.00 64.00 77.00 64.00 77.00 C64.00 77.00 69.00 77.00 69.00 77.00 C69.00 77.00 70.00 77.00 70.00 77.00 C70.00 77.00 75.00 77.00 75.00 77.00 C75.00 77.00 76.00 77.00 76.00 77.00 C76.00 77.00 76.00 76.00 76.00 76.00 C76.00 76.00 76.00 73.00 76.00 73.00 C76.00 73.00 76.00 72.00 76.00 72.00 C76.00 72.00 75.00 72.00 75.00 72.00 C75.00 72.00 70.00 72.00 70.00 72.00 C70.00 72.00 69.00 72.00 69.00 72.00 C69.00 72.00 64.00 72.00 64.00 72.00 C64.00 72.00 63.00 72.00 63.00 72.00 Z M70.00 56.00 C70.00 56.00 70.00 53.00 70.00 53.00 C70.00 53.00 75.00 53.00 75.00 53.00 C75.00 53.00 75.00 56.00 75.00 56.00 C75.00 56.00 70.00 56.00 70.00 56.00 Z M70.00 60.00 C70.00 60.00 70.00 57.00 70.00 57.00 C70.00 57.00 75.00 57.00 75.00 57.00 C75.00 57.00 75.00 60.00 75.00 60.00 C75.00 60.00 70.00 60.00 70.00 60.00 Z M70.00 64.00 C70.00 64.00 70.00 61.00 70.00 61.00 C70.00 61.00 75.00 61.00 75.00 61.00 C75.00 61.00 75.00 64.00 75.00 64.00 C75.00 64.00 70.00 64.00 70.00 64.00 Z M70.00 68.00 C70.00 68.00 70.00 65.00 70.00 65.00 C70.00 65.00 75.00 65.00 75.00 65.00 C75.00 65.00 75.00 68.00 75.00 68.00 C75.00 68.00 70.00 68.00 70.00 68.00 Z M64.00 56.00 C64.00 56.00 64.00 53.00 64.00 53.00 C64.00 53.00 69.00 53.00 69.00 53.00 C69.00 53.00 69.00 56.00 69.00 56.00 C69.00 56.00 64.00 56.00 64.00 56.00 Z M64.00 60.00 C64.00 60.00 64.00 57.00 64.00 57.00 C64.00 57.00 69.00 57.00 69.00 57.00 C69.00 57.00 69.00 60.00 69.00 60.00 C69.00 60.00 64.00 60.00 64.00 60.00 Z M64.00 64.00 C64.00 64.00 64.00 61.00 64.00 61.00 C64.00 61.00 69.00 61.00 69.00 61.00 C69.00 61.00 69.00 64.00 69.00 64.00 C69.00 64.00 64.00 64.00 64.00 64.00 Z M64.00 68.00 C64.00 68.00 64.00 65.00 64.00 65.00 C64.00 65.00 69.00 65.00 69.00 65.00 C69.00 65.00 69.00 68.00 69.00 68.00 C69.00 68.00 64.00 68.00 64.00 68.00 Z M63.00 52.00 C63.00 52.00 63.00 53.00 63.00 53.00 C63.00 53.00 63.00 56.00 63.00 56.00 C63.00 56.00 63.00 57.00 63.00 57.00 C63.00 57.00 63.00 60.00 63.00 60.00 C63.00 60.00 63.00 61.00 63.00 61.00 C63.00 61.00 63.00 64.00 63.00 64.00 C63.00 64.00 63.00 65.00 63.00 65.00 C63.00 65.00 63.00 68.00 63.00 68.00 C63.00 68.00 63.00 69.00 63.00 69.00 C63.00 69.00 64.00 69.00 64.00 69.00 C64.00 69.00 69.00 69.00 69.00 69.00 C69.00 69.00 70.00 69.00 70.00 69.00 C70.00 69.00 75.00 69.00 75.00 69.00 C75.00 69.00 76.00 69.00 76.00 69.00 C76.00 69.00 76.00 68.00 76.00 68.00 C76.00 68.00 76.00 65.00 76.00 65.00 C76.00 65.00 76.00 64.00 76.00 64.00 C76.00 64.00 76.00 61.00 76.00 61.00 C76.00 61.00 76.00 60.00 76.00 60.00 C76.00 60.00 76.00 57.00 76.00 57.00 C76.00 57.00 76.00 56.00 76.00 56.00 C76.00 56.00 76.00 53.00 76.00 53.00 C76.00 53.00 76.00 52.00 76.00 52.00 C76.00 52.00 75.00 52.00 75.00 52.00 C75.00 52.00 70.00 52.00 70.00 52.00 C70.00 52.00 69.00 52.00 69.00 52.00 C69.00 52.00 64.00 52.00 64.00 52.00 C64.00 52.00 63.00 52.00 63.00 52.00 Z"/>
<path fill="rgb(255,255,255)" fill-rule="evenodd" d="M55.00 72.00 C54.45 72.00 54.00 72.45 54.00 73.00 C54.00 73.55 54.45 74.00 55.00 74.00 C55.00 74.00 57.00 74.00 57.00 74.00 C57.55 74.00 58.00 73.55 58.00 73.00 C58.00 72.45 57.55 72.00 57.00 72.00 C57.00 72.00 55.00 72.00 55.00 72.00 Z M45.00 72.00 C44.45 72.00 44.00 72.45 44.00 73.00 C44.00 73.55 44.45 74.00 45.00 74.00 C45.00 74.00 50.00 74.00 50.00 74.00 C50.55 74.00 51.00 73.55 51.00 73.00 C51.00 72.45 50.55 72.00 50.00 72.00 C50.00 72.00 45.00 72.00 45.00 72.00 Z M55.00 68.00 C54.45 68.00 54.00 68.45 54.00 69.00 C54.00 69.55 54.45 70.00 55.00 70.00 C55.00 70.00 60.00 70.00 60.00 70.00 C60.55 70.00 61.00 69.55 61.00 69.00 C61.00 68.45 60.55 68.00 60.00 68.00 C60.00 68.00 55.00 68.00 55.00 68.00 Z M45.00 68.00 C44.45 68.00 44.00 68.45 44.00 69.00 C44.00 69.55 44.45 70.00 45.00 70.00 C45.00 70.00 50.00 70.00 50.00 70.00 C50.55 70.00 51.00 69.55 51.00 69.00 C51.00 68.45 50.55 68.00 50.00 68.00 C50.00 68.00 45.00 68.00 45.00 68.00 Z M55.00 64.00 C54.45 64.00 54.00 64.45 54.00 65.00 C54.00 65.55 54.45 66.00 55.00 66.00 C55.00 66.00 60.00 66.00 60.00 66.00 C60.55 66.00 61.00 65.55 61.00 65.00 C61.00 64.45 60.55 64.00 60.00 64.00 C60.00 64.00 55.00 64.00 55.00 64.00 Z M45.00 64.00 C44.45 64.00 44.00 64.45 44.00 65.00 C44.00 65.55 44.45 66.00 45.00 66.00 C45.00 66.00 50.00 66.00 50.00 66.00 C50.55 66.00 51.00 65.55 51.00 65.00 C51.00 64.45 50.55 64.00 50.00 64.00 C50.00 64.00 45.00 64.00 45.00 64.00 Z M55.00 60.00 C54.45 60.00 54.00 60.45 54.00 61.00 C54.00 61.55 54.45 62.00 55.00 62.00 C55.00 62.00 60.00 62.00 60.00 62.00 C60.55 62.00 61.00 61.55 61.00 61.00 C61.00 60.45 60.55 60.00 60.00 60.00 C60.00 60.00 55.00 60.00 55.00 60.00 Z M45.00 60.00 C44.45 60.00 44.00 60.45 44.00 61.00 C44.00 61.55 44.45 62.00 45.00 62.00 C45.00 62.00 50.00 62.00 50.00 62.00 C50.55 62.00 51.00 61.55 51.00 61.00 C51.00 60.45 50.55 60.00 50.00 60.00 C50.00 60.00 45.00 60.00 45.00 60.00 Z M55.00 56.00 C54.45 56.00 54.00 56.45 54.00 57.00 C54.00 57.55 54.45 58.00 55.00 58.00 C55.00 58.00 60.00 58.00 60.00 58.00 C60.55 58.00 61.00 57.55 61.00 57.00 C61.00 56.45 60.55 56.00 60.00 56.00 C60.00 56.00 55.00 56.00 55.00 56.00 Z M45.00 56.00 C44.45 56.00 44.00 56.45 44.00 57.00 C44.00 57.55 44.45 58.00 45.00 58.00 C45.00 58.00 50.00 58.00 50.00 58.00 C50.55 58.00 51.00 57.55 51.00 57.00 C51.00 56.45 50.55 56.00 50.00 56.00 C50.00 56.00 45.00 56.00 45.00 56.00 Z M55.00 52.00 C54.45 52.00 54.00 52.45 54.00 53.00 C54.00 53.55 54.45 54.00 55.00 54.00 C55.00 54.00 60.00 54.00 60.00 54.00 C60.55 54.00 61.00 53.55 61.00 53.00 C61.00 52.45 60.55 52.00 60.00 52.00 C60.00 52.00 55.00 52.00 55.00 52.00 Z M45.00 52.00 C44.45 52.00 44.00 52.45 44.00 53.00 C44.00 53.55 44.45 54.00 45.00 54.00 C45.00 54.00 50.00 54.00 50.00 54.00 C50.55 54.00 51.00 53.55 51.00 53.00 C51.00 52.45 50.55 52.00 50.00 52.00 C50.00 52.00 45.00 52.00 45.00 52.00 Z"/>
<path fill="rgb(255,255,255)" fill-rule="evenodd" d="M41.00 43.00 C41.00 43.00 45.00 43.00 45.00 43.00 C45.00 43.00 45.00 45.00 45.00 45.00 C45.00 45.00 41.00 45.00 41.00 45.00 C41.00 45.00 41.00 43.00 41.00 43.00 Z M47.00 43.00 C47.00 43.00 51.00 43.00 51.00 43.00 C51.00 43.00 51.00 45.00 51.00 45.00 C51.00 45.00 47.00 45.00 47.00 45.00 C47.00 45.00 47.00 43.00 47.00 43.00 Z M78.00 43.00 C78.00 43.00 80.00 43.00 80.00 43.00 C80.00 43.00 80.00 45.00 80.00 45.00 C80.00 45.00 78.00 45.00 78.00 45.00 C78.00 45.00 78.00 43.00 78.00 43.00 Z M53.00 43.00 C53.00 43.00 55.00 43.00 55.00 43.00 C55.00 43.00 55.00 45.00 55.00 45.00 C55.00 45.00 53.00 45.00 53.00 45.00 C53.00 45.00 53.00 43.00 53.00 43.00 Z M81.00 39.00 C81.00 39.00 80.00 39.00 80.00 39.00 C80.00 39.00 41.00 39.00 41.00 39.00 C41.00 39.00 40.00 39.00 40.00 39.00 C40.00 39.00 39.00 39.00 39.00 39.00 C39.00 39.00 39.00 83.00 39.00 83.00 C39.00 83.00 40.00 83.00 40.00 83.00 C40.00 83.00 41.00 83.00 41.00 83.00 C41.00 83.00 80.00 83.00 80.00 83.00 C80.00 83.00 81.00 83.00 81.00 83.00 C81.00 83.00 82.00 83.00 82.00 83.00 C82.00 83.00 82.00 39.00 82.00 39.00 C82.00 39.00 81.00 39.00 81.00 39.00 Z M41.00 49.00 C41.00 49.00 80.00 49.00 80.00 49.00 C80.00 49.00 80.00 81.00 80.00 81.00 C80.00 81.00 41.00 81.00 41.00 81.00 C41.00 81.00 41.00 49.00 41.00 49.00 Z"/>
</g>
</svg>