<?xml version="1.0" encoding="utf-8"?>
<svg xmlns="http://www.w3.org/2000/svg"
	xmlns:xlink="http://www.w3.org/1999/xlink"
	width="120px" height="120px">
<g>
<path fill="rgb(75,97,184)" fill-rule="evenodd" d="M-0.00 60.00 C-0.00 26.86 26.86 -0.00 60.00 -0.00 C93.14 -0.00 120.00 26.86 120.00 60.00 C120.00 93.14 93.14 120.00 60.00 120.00 C26.86 120.00 -0.00 93.14 -0.00 60.00 Z"/>
<path fill="rgb(255,255,255)" fill-rule="evenodd" d="M38.00 51.00 C38.00 38.85 47.85 29.00 60.00 29.00 C72.15 29.00 82.00 38.85 82.00 51.00 C82.00 63.15 72.15 73.00 60.00 73.00 C47.85 73.00 38.00 63.15 38.00 51.00 Z"/>
<path fill="rgb(75,97,184)" fill-rule="evenodd" d="M40.00 51.00 C40.00 39.95 48.95 31.00 60.00 31.00 C71.05 31.00 80.00 39.95 80.00 51.00 C80.00 62.05 71.05 71.00 60.00 71.00 C48.95 71.00 40.00 62.05 40.00 51.00 Z"/>
<path fill="rgb(75,97,184)" fill-rule="evenodd" d="M50.00 67.00 C50.00 67.00 70.00 67.00 70.00 67.00 C70.00 67.00 68.00 76.00 68.00 76.00 C68.00 76.00 52.00 76.00 52.00 76.00 C52.00 76.00 50.00 67.00 50.00 67.00 Z"/>
<path fill="rgb(255,255,255)" fill-rule="evenodd" d="M70.71 68.71 C68.70 70.06 67.00 70.76 67.00 74.00 C67.00 74.00 67.00 83.00 67.00 83.00 C67.00 83.00 69.00 83.00 69.00 83.00 C69.00 83.00 69.00 74.00 69.00 74.00 C69.00 72.76 69.72 71.63 71.00 70.35 C71.00 70.35 71.00 69.00 71.00 69.00 C71.00 69.00 70.71 68.71 70.71 68.71 Z"/>
<path fill="rgb(255,255,255)" fill-rule="evenodd" d="M49.28 68.71 C51.30 70.06 53.00 70.76 53.00 74.00 C53.00 74.00 53.00 83.00 53.00 83.00 C53.00 83.00 51.00 83.00 51.00 83.00 C51.00 83.00 51.00 74.00 51.00 74.00 C51.00 72.76 50.28 71.63 49.00 70.35 C49.00 70.35 49.00 69.00 49.00 69.00 C49.00 69.00 49.28 68.71 49.28 68.71 Z"/>
<path fill="rgb(255,255,255)" fill-rule="evenodd" d="M60.00 90.00 C56.47 90.00 53.56 87.39 53.07 84.00 C53.07 84.00 53.00 84.00 53.00 84.00 C53.00 84.00 53.00 83.00 53.00 83.00 C53.00 83.00 53.00 77.34 53.00 77.34 C51.75 78.89 51.00 80.86 51.00 83.00 C51.00 87.97 55.03 92.00 60.00 92.00 C64.97 92.00 69.00 87.97 69.00 83.00 C69.00 80.86 68.25 78.89 67.00 77.34 C67.00 77.34 67.00 83.00 67.00 83.00 C67.00 83.00 67.00 84.00 67.00 84.00 C67.00 84.00 66.93 84.00 66.93 84.00 C66.44 87.39 63.53 90.00 60.00 90.00 Z"/>
<rect x="53.00" y="76.00" width="14.00" height="2.00" fill="rgb(255,255,255)"/>
<path fill="rgb(246,137,0)" fill-rule="evenodd" d="M68.75 52.92 C68.75 52.92 67.13 53.33 67.13 53.33 C67.00 53.70 66.85 54.06 66.68 54.40 C66.68 54.40 67.55 55.85 67.55 55.85 C67.87 56.37 68.03 57.13 67.55 57.62 C67.55 57.62 66.66 58.50 66.66 58.50 C66.17 58.99 65.35 58.90 64.85 58.56 C64.85 58.56 63.44 57.66 63.44 57.66 C63.08 57.84 62.71 58.00 62.31 58.13 C62.31 58.13 61.95 59.76 61.95 59.76 C61.85 60.36 61.33 61.00 60.63 61.00 C60.63 61.00 59.38 61.00 59.38 61.00 C58.69 61.00 58.27 60.35 58.13 59.75 C58.13 59.75 57.73 58.15 57.73 58.15 C57.31 58.02 56.90 57.84 56.51 57.64 C56.51 57.64 55.06 58.56 55.06 58.56 C54.57 58.90 53.74 58.99 53.26 58.50 C53.26 58.50 52.37 57.62 52.37 57.62 C51.88 57.13 52.05 56.37 52.37 55.85 C52.37 55.85 53.29 54.33 53.29 54.33 C53.13 54.01 52.99 53.68 52.87 53.33 C52.87 53.33 51.25 52.92 51.25 52.92 C50.65 52.79 50.00 52.37 50.00 51.67 C50.00 51.67 50.00 50.42 50.00 50.42 C50.00 49.73 50.64 49.21 51.24 49.11 C51.24 49.11 52.84 48.75 52.84 48.75 C52.96 48.38 53.11 48.02 53.28 47.68 C53.28 47.68 52.37 46.15 52.37 46.15 C52.05 45.64 51.88 44.87 52.37 44.39 C52.37 44.39 53.26 43.50 53.26 43.50 C53.74 43.01 54.57 43.10 55.06 43.45 C55.06 43.45 56.51 44.37 56.51 44.37 C56.89 44.16 57.30 43.99 57.72 43.85 C57.72 43.85 58.12 42.25 58.12 42.25 C58.26 41.65 58.68 41.00 59.37 41.00 C59.37 41.00 60.62 41.00 60.62 41.00 C61.32 41.00 61.84 41.64 61.94 42.24 C61.94 42.24 62.30 43.86 62.30 43.86 C62.70 43.99 63.08 44.15 63.45 44.34 C63.45 44.34 64.85 43.45 64.85 43.45 C65.35 43.10 66.17 43.01 66.66 43.50 C66.66 43.50 67.55 44.39 67.55 44.39 C68.03 44.87 67.87 45.64 67.55 46.15 C67.55 46.15 66.68 47.60 66.68 47.60 C66.87 47.97 67.03 48.35 67.16 48.75 C67.16 48.75 68.76 49.11 68.76 49.11 C69.36 49.21 70.00 49.73 70.00 50.42 C70.00 50.42 70.00 51.67 70.00 51.67 C70.00 52.37 69.35 52.79 68.75 52.92 Z M68.49 50.33 C68.49 50.33 66.18 49.81 66.18 49.81 C66.18 49.81 65.96 49.12 65.96 49.12 C65.87 48.81 65.74 48.50 65.57 48.17 C65.57 48.17 65.25 47.55 65.25 47.55 C65.25 47.55 66.49 45.49 66.49 45.49 C66.56 45.38 66.59 45.27 66.60 45.21 C66.60 45.21 65.78 44.41 65.78 44.41 C65.70 44.41 65.61 44.44 65.52 44.50 C65.52 44.50 63.51 45.79 63.51 45.79 C63.51 45.79 62.87 45.45 62.87 45.45 C62.56 45.29 62.24 45.16 61.92 45.05 C61.92 45.05 61.24 44.83 61.24 44.83 C61.24 44.83 60.71 42.46 60.71 42.46 C60.70 42.37 60.62 42.26 60.62 42.25 C60.62 42.25 59.46 42.25 59.46 42.25 C59.42 42.30 59.37 42.41 59.34 42.55 C59.34 42.55 58.77 44.83 58.77 44.83 C58.77 44.83 58.10 45.05 58.10 45.05 C57.76 45.15 57.42 45.30 57.09 45.47 C57.09 45.47 56.45 45.81 56.45 45.81 C56.45 45.81 54.35 44.47 54.35 44.47 C54.31 44.44 54.22 44.41 54.14 44.39 C54.14 44.39 53.32 45.21 53.32 45.21 C53.33 45.27 53.36 45.39 53.44 45.51 C53.44 45.51 54.71 47.62 54.71 47.62 C54.71 47.62 54.40 48.23 54.40 48.23 C54.24 48.55 54.12 48.84 54.04 49.13 C54.04 49.13 53.82 49.81 53.82 49.81 C53.82 49.81 51.46 50.34 51.46 50.34 C51.38 50.35 51.27 50.43 51.25 50.43 C51.25 50.43 51.25 50.43 51.25 50.42 C51.25 50.42 51.25 51.59 51.25 51.59 C51.30 51.63 51.41 51.68 51.55 51.71 C51.55 51.71 53.85 52.29 53.85 52.29 C53.85 52.29 54.06 52.94 54.06 52.94 C54.15 53.21 54.26 53.48 54.41 53.77 C54.41 53.77 54.71 54.38 54.71 54.38 C54.71 54.38 53.43 56.51 53.43 56.51 C53.36 56.62 53.33 56.73 53.32 56.79 C53.32 56.79 54.14 57.59 54.14 57.59 C54.22 57.59 54.31 57.56 54.39 57.50 C54.39 57.50 56.45 56.19 56.45 56.19 C56.45 56.19 57.09 56.53 57.09 56.53 C57.43 56.71 57.77 56.85 58.11 56.96 C58.11 56.96 58.78 57.17 58.78 57.17 C58.78 57.17 59.35 59.47 59.35 59.47 C59.38 59.60 59.43 59.70 59.47 59.75 C59.47 59.75 60.60 59.75 60.60 59.75 C60.64 59.71 60.71 59.61 60.73 59.49 C60.73 59.49 61.25 57.16 61.25 57.16 C61.25 57.16 61.93 56.94 61.93 56.94 C62.24 56.84 62.56 56.71 62.87 56.55 C62.87 56.55 63.51 56.22 63.51 56.22 C63.51 56.22 65.57 57.53 65.57 57.53 C65.61 57.56 65.70 57.59 65.78 57.62 C65.78 57.62 66.60 56.80 66.60 56.80 C66.59 56.73 66.55 56.62 66.48 56.49 C66.48 56.49 65.25 54.45 65.25 54.45 C65.25 54.45 65.56 53.83 65.56 53.83 C65.72 53.54 65.84 53.24 65.94 52.94 C65.94 52.94 66.15 52.29 66.15 52.29 C66.15 52.29 68.47 51.71 68.47 51.71 C68.60 51.68 68.70 51.62 68.75 51.59 C68.75 51.59 68.76 50.48 68.76 50.48 C68.74 50.43 68.63 50.35 68.49 50.33 Z M60.01 54.76 C57.93 54.76 56.24 53.07 56.24 51.00 C56.24 48.93 57.93 47.24 60.01 47.24 C62.08 47.24 63.77 48.93 63.77 51.00 C63.77 53.07 62.08 54.76 60.01 54.76 Z M60.00 48.50 C58.62 48.50 57.50 49.62 57.50 51.00 C57.50 52.38 58.62 53.50 60.00 53.50 C61.38 53.50 62.50 52.38 62.50 51.00 C62.50 49.62 61.38 48.50 60.00 48.50 Z"/>
</g>
</svg>