<?xml version="1.0" encoding="utf-8"?>
<svg xmlns="http://www.w3.org/2000/svg"
	xmlns:xlink="http://www.w3.org/1999/xlink"
	width="76px" height="49px">
<filter id="filter0" x="-4.35%" y="-6.45%" width="108.70%" height="112.90%" filterUnits="objectBoundingBox">
<feGaussianBlur in="SourceAlpha" result="ogBlurOut" stdDeviation="1.00"/>
<feFlood result="ogFloodOut" flood-color="rgb(76,97,183)"/>
<feComposite in="ogFloodOut" in2="ogBlurOut" result="ogRawGlow" operator="atop"/>
<feComponentTransfer in="ogRawGlow" result="ogRawGlowOpacity">
<feFuncA type="linear" slope="1.00"/>
</feComponentTransfer>
<feComposite in="ogRawGlowOpacity" in2="SourceAlpha" result="outerGlow" operator="out"/>
</filter>
<defs>
<path id="symbol0" fill-rule="evenodd" d="M51.00 16.00 C51.00 16.00 32.00 16.00 32.00 16.00 C29.51 16.00 28.00 17.51 28.00 20.00 C28.00 20.00 28.00 43.00 28.00 43.00 C28.00 45.49 29.51 47.00 32.00 47.00 C32.00 47.00 51.00 47.00 51.00 47.00 C51.00 47.00 70.00 47.00 70.00 47.00 C72.49 47.00 74.00 45.49 74.00 43.00 C74.00 43.00 74.00 20.00 74.00 20.00 C74.00 17.51 72.49 16.00 70.00 16.00 C70.00 16.00 51.00 16.00 51.00 16.00 Z"/>
</defs>
<g>
<path fill="rgb(246,137,0)" fill-rule="evenodd" d="M32.44 4.71 C32.44 4.71 33.41 4.03 34.08 4.80 C34.76 5.59 34.08 6.34 34.08 6.34 C34.08 6.34 19.25 18.13 19.25 18.13 C19.04 18.32 18.77 18.41 18.50 18.41 C18.23 18.41 17.96 18.32 17.75 18.13 C17.75 18.13 2.92 6.34 2.92 6.34 C2.92 6.34 2.40 5.36 3.03 4.79 C3.68 4.20 4.55 4.72 4.55 4.72 C4.55 4.72 18.50 15.75 18.50 15.75 C18.50 15.75 32.44 4.71 32.44 4.71 Z M36.90 15.00 C36.90 15.00 36.90 3.43 36.90 3.43 C36.90 1.53 35.36 -0.00 33.45 -0.00 C33.45 -0.00 3.55 -0.00 3.55 -0.00 C1.64 -0.00 0.10 1.53 0.10 3.43 C0.10 3.43 0.10 20.57 0.10 20.57 C0.10 22.47 1.64 24.00 3.55 24.00 C3.55 24.00 27.00 24.00 27.00 24.00 C27.00 24.00 27.00 20.00 27.00 20.00 C27.00 16.12 29.51 15.00 32.00 15.00 C32.00 15.00 36.90 15.00 36.90 15.00 Z"/>
<g>
<use xlink:href="#symbol0" filter="url(#filter0)"/>
<use xlink:href="#symbol0" fill="rgb(255,255,255)"/>
</g>
<path fill="rgb(75,97,184)" fill-rule="evenodd" d="M69.18 22.93 C69.18 22.93 70.44 22.04 71.32 23.05 C72.21 24.09 71.32 25.07 71.32 25.07 C71.32 25.07 51.98 40.55 51.98 40.55 C51.70 40.79 51.35 40.91 51.00 40.91 C50.65 40.91 50.30 40.79 50.02 40.55 C50.02 40.55 30.67 25.07 30.67 25.07 C30.67 25.07 30.00 23.78 30.82 23.03 C31.66 22.26 32.80 22.94 32.80 22.94 C32.80 22.94 51.00 37.43 51.00 37.43 C51.00 37.43 69.18 22.93 69.18 22.93 Z"/>
</g>
</svg>