<?xml version="1.0" encoding="utf-8"?>
<svg xmlns="http://www.w3.org/2000/svg"
	xmlns:xlink="http://www.w3.org/1999/xlink"
	width="180px" height="180px">
<linearGradient id="linear_PSgrad_0" x1="50%" x2="50%" y1="100%" y2="0%">
    <stop offset="0%" stop-color="rgb(63,82,157)" stop-opacity="1" />
    <stop offset="0.65918%" stop-color="rgb(63,82,157)" stop-opacity="1" />
    <stop offset="100%" stop-color="rgb(91,117,217)" stop-opacity="1" />
</linearGradient>

<defs>
<circle id="symbol0" cx="90.00" cy="90.00" r="90.00"/>
</defs>
<g>
<g>
<use xlink:href="#symbol0" fill="rgb(76,100,188)"/>
<use xlink:href="#symbol0" fill="url(#linear_PSgrad_0)"/>
</g>
<path fill="rgb(255,255,255)" fill-rule="evenodd" d="M147.88 74.91 C149.43 72.93 150.68 69.81 151.62 65.55 C151.71 64.89 151.87 63.94 152.11 62.71 C152.20 62.01 152.25 61.17 152.25 60.23 C152.25 53.37 148.59 49.94 141.28 49.94 C141.28 49.94 108.71 49.94 108.71 49.94 C108.71 49.94 108.29 51.51 108.29 51.51 C108.85 51.51 109.37 51.75 109.84 52.23 C110.31 52.72 110.49 53.23 110.40 53.76 C110.40 53.76 100.83 95.31 100.83 95.31 C100.75 95.78 100.70 96.17 100.70 96.45 C100.70 97.21 100.89 97.81 101.30 98.26 C101.69 98.72 102.29 98.94 103.09 98.94 C103.09 98.94 122.56 98.94 122.56 98.94 C122.56 98.94 122.92 97.37 122.92 97.37 C122.30 97.37 121.80 97.22 121.41 96.91 C121.00 96.60 120.81 96.21 120.81 95.74 C120.81 95.74 120.88 95.03 120.88 95.03 C120.88 95.03 123.90 81.19 123.90 81.19 C123.90 81.19 127.98 95.67 127.98 95.67 C128.21 96.62 128.78 97.40 129.67 98.02 C130.55 98.64 131.61 98.94 132.84 98.94 C132.84 98.94 142.26 98.94 142.26 98.94 C145.17 98.94 146.86 97.83 147.32 95.60 C147.32 95.60 149.01 87.51 149.01 87.51 C149.01 87.51 146.97 87.47 146.97 87.47 C146.27 87.47 145.64 87.27 145.07 86.87 C144.51 86.47 144.06 85.98 143.74 85.41 C143.74 85.41 141.28 78.89 141.28 78.89 C144.14 78.23 146.33 76.90 147.88 74.91 Z M131.44 60.89 C132.56 60.89 133.12 61.56 133.12 62.89 C133.12 63.23 133.07 63.64 132.98 64.14 C132.88 64.64 132.79 65.16 132.70 65.68 C132.09 68.40 130.98 69.75 129.39 69.75 C129.39 69.75 126.65 69.75 126.65 69.75 C126.65 69.75 128.69 60.89 128.69 60.89 C128.69 60.89 131.44 60.89 131.44 60.89 Z M97.33 52.29 C97.33 51.53 97.16 50.95 96.80 50.55 C96.45 50.15 95.87 49.94 95.08 49.94 C95.08 49.94 75.53 49.94 75.53 49.94 C75.53 49.94 75.18 51.51 75.18 51.51 C75.70 51.51 76.19 51.76 76.66 52.26 C77.13 52.75 77.31 53.24 77.22 53.72 C77.22 53.72 67.58 95.52 67.58 95.52 C67.48 96.09 67.44 96.48 67.44 96.66 C67.44 98.18 68.20 98.94 69.70 98.94 C69.70 98.94 89.24 98.94 89.24 98.94 C89.24 98.94 89.74 97.37 89.74 97.37 C89.22 97.37 88.70 97.13 88.19 96.63 C87.67 96.14 87.46 95.65 87.56 95.17 C87.56 95.17 97.20 53.36 97.20 53.36 C97.20 53.36 97.33 52.29 97.33 52.29 Z M31.47 50.41 C30.91 50.72 30.53 51.21 30.35 51.87 C30.35 51.87 27.54 63.25 27.54 63.25 C27.54 63.25 29.30 63.25 29.30 63.25 C29.48 62.71 29.82 62.27 30.32 61.92 C30.81 61.58 31.43 61.41 32.18 61.41 C32.18 61.41 37.03 61.41 37.03 61.41 C37.03 61.41 29.08 95.54 29.08 95.54 C28.98 96.11 28.94 96.49 28.94 96.67 C28.94 98.19 29.69 98.94 31.20 98.94 C31.20 98.94 50.75 98.94 50.75 98.94 C50.75 98.94 51.24 97.37 51.24 97.37 C50.73 97.37 50.21 97.13 49.69 96.63 C49.18 96.14 48.97 95.65 49.06 95.17 C49.06 95.17 56.94 61.41 56.94 61.41 C56.94 61.41 61.09 61.41 61.09 61.41 C63.39 61.41 64.77 60.66 65.24 59.16 C65.24 59.16 68.05 48.38 68.05 48.38 C68.05 48.38 66.44 48.38 66.44 48.38 C66.24 48.89 65.80 49.27 65.10 49.54 C64.39 49.81 63.66 49.94 62.92 49.94 C62.92 49.94 34.15 49.94 34.15 49.94 C32.92 49.94 32.04 50.10 31.47 50.41 Z"/>
<path fill="rgb(246,136,0)" fill-rule="evenodd" d="M145.87 115.39 C145.87 115.18 145.80 115.00 145.67 114.85 C145.54 114.69 145.37 114.61 145.16 114.61 C145.16 114.61 139.54 114.61 139.54 114.61 C139.54 114.61 139.41 115.13 139.41 115.13 C139.55 115.13 139.70 115.22 139.84 115.36 C139.96 115.52 140.04 115.68 140.04 115.84 C140.04 115.84 140.04 116.05 140.04 116.05 C140.04 116.15 140.02 116.24 139.99 116.33 C139.99 116.33 136.99 129.67 136.99 129.67 C136.99 129.67 136.92 130.15 136.92 130.15 C136.92 130.31 136.99 130.46 137.12 130.59 C137.26 130.70 137.43 130.77 137.64 130.77 C137.64 130.77 143.25 130.77 143.25 130.77 C143.25 130.77 143.39 130.25 143.39 130.25 C143.23 130.25 143.09 130.18 142.96 130.03 C142.82 129.88 142.76 129.73 142.76 129.56 C142.76 129.56 142.78 129.21 142.78 129.21 C142.78 129.21 143.25 127.12 143.25 127.12 C143.25 127.12 146.42 127.12 146.42 127.12 C147.97 127.12 149.06 126.85 149.67 126.30 C150.34 125.69 150.90 124.39 151.37 122.40 C151.37 122.40 152.00 119.68 152.00 119.68 C152.21 118.75 152.32 117.96 152.32 117.32 C152.32 116.42 152.12 115.74 151.72 115.29 C151.32 114.84 150.68 114.61 149.78 114.61 C149.78 114.61 148.70 114.61 148.70 114.61 C148.02 114.61 147.47 114.81 147.05 115.20 C146.75 115.47 146.39 115.97 145.94 116.70 C145.94 116.70 145.67 116.70 145.67 116.70 C145.67 116.70 145.81 116.01 145.81 116.01 C145.81 116.01 145.87 115.39 145.87 115.39 Z M145.39 118.44 C145.52 118.33 145.70 118.26 145.92 118.26 C145.92 118.26 146.01 118.26 146.01 118.26 C146.35 118.26 146.53 118.41 146.53 118.70 C146.53 118.90 146.51 119.04 146.48 119.12 C146.48 119.12 145.50 123.33 145.50 123.33 C145.39 123.77 145.13 123.99 144.73 123.99 C144.73 123.99 143.95 123.99 143.95 123.99 C143.95 123.99 145.13 118.93 145.13 118.93 C145.18 118.72 145.26 118.55 145.39 118.44 Z M131.12 123.37 C130.89 123.30 130.78 123.19 130.78 123.03 C130.78 123.03 130.84 122.62 130.84 122.62 C130.84 122.62 131.04 121.91 131.04 121.91 C131.04 121.91 135.16 121.91 135.16 121.91 C136.01 121.91 136.57 121.76 136.83 121.43 C137.09 121.11 137.36 120.29 137.66 118.97 C137.77 118.43 137.83 117.97 137.83 117.58 C137.83 116.60 137.50 115.86 136.84 115.36 C136.18 114.87 135.14 114.61 133.72 114.61 C133.72 114.61 131.25 114.61 131.25 114.61 C129.98 114.61 128.87 115.07 127.92 115.97 C126.97 116.86 126.30 118.15 125.93 119.82 C125.93 119.82 125.37 121.99 125.37 121.99 C125.12 122.94 125.01 123.73 125.01 124.33 C125.01 125.26 125.26 125.95 125.76 126.42 C126.26 126.89 127.05 127.12 128.14 127.12 C128.14 127.12 132.87 127.12 132.87 127.12 C133.80 127.12 134.49 126.99 134.96 126.71 C135.42 126.45 135.74 125.92 135.92 125.15 C135.92 125.15 136.48 122.84 136.48 122.84 C136.48 122.84 135.92 122.95 135.92 122.95 C135.80 123.16 135.60 123.30 135.34 123.37 C135.06 123.44 134.64 123.47 134.04 123.47 C134.04 123.47 132.21 123.47 132.21 123.47 C131.70 123.47 131.34 123.44 131.12 123.37 Z M131.79 118.65 C131.85 118.33 131.92 118.11 132.01 117.96 C132.10 117.81 132.27 117.74 132.53 117.74 C132.87 117.74 133.05 117.89 133.05 118.20 C133.05 118.35 133.03 118.48 133.00 118.60 C133.00 118.60 132.89 119.14 132.89 119.14 C132.79 119.60 132.61 119.82 132.33 119.82 C132.33 119.82 131.57 119.82 131.57 119.82 C131.57 119.82 131.79 118.65 131.79 118.65 Z M119.97 112.11 C119.97 111.94 119.89 111.80 119.76 111.67 C119.63 111.55 119.46 111.49 119.25 111.49 C119.25 111.49 113.64 111.49 113.64 111.49 C113.64 111.49 113.50 112.01 113.50 112.01 C113.64 112.01 113.79 112.09 113.93 112.24 C114.06 112.40 114.13 112.56 114.13 112.72 C114.13 112.72 114.13 112.94 114.13 112.94 C114.13 113.03 114.11 113.12 114.08 113.21 C114.08 113.21 112.92 118.26 112.92 118.26 C112.92 118.26 112.60 118.26 112.60 118.26 C112.60 118.26 111.67 116.10 111.67 116.10 C111.62 115.98 111.59 115.89 111.58 115.84 C111.56 115.79 111.55 115.71 111.55 115.61 C111.55 115.30 111.74 115.13 112.12 115.13 C112.12 115.13 112.26 114.61 112.26 114.61 C112.26 114.61 108.23 114.61 108.23 114.61 C107.68 114.61 107.42 114.89 107.42 115.43 C107.42 115.65 107.48 115.86 107.61 116.05 C107.61 116.05 109.12 118.40 109.12 118.40 C108.31 118.51 107.60 118.84 106.97 119.38 C106.39 119.87 106.04 120.41 105.91 120.98 C105.91 120.98 104.77 125.86 104.77 125.86 C104.71 126.10 104.60 126.28 104.46 126.39 C104.32 126.50 104.15 126.57 103.94 126.60 C103.94 126.60 103.80 127.12 103.80 127.12 C103.80 127.12 108.34 127.12 108.34 127.12 C108.80 127.12 109.15 127.02 109.38 126.80 C109.61 126.58 109.77 126.26 109.86 125.85 C109.86 125.85 110.70 122.30 110.70 122.30 C110.75 122.00 110.89 121.77 111.12 121.62 C111.34 121.47 111.69 121.39 112.17 121.39 C112.17 121.39 111.12 126.03 111.12 126.03 C111.12 126.03 111.05 126.51 111.05 126.51 C111.05 126.67 111.12 126.82 111.26 126.94 C111.40 127.06 111.58 127.12 111.79 127.12 C111.79 127.12 117.62 127.12 117.62 127.12 C117.62 127.12 117.75 126.60 117.75 126.60 C117.54 126.60 117.35 126.53 117.16 126.37 C116.98 126.23 116.89 126.06 116.89 125.89 C116.89 125.89 116.91 125.53 116.91 125.53 C116.91 125.53 117.86 121.39 117.86 121.39 C118.23 121.39 118.50 121.47 118.68 121.63 C118.86 121.80 118.96 121.99 118.96 122.23 C118.96 122.23 118.90 122.73 118.90 122.73 C118.90 122.73 118.27 125.94 118.27 125.94 C118.27 125.94 118.27 126.21 118.27 126.21 C118.27 126.82 118.68 127.12 119.51 127.12 C119.51 127.12 123.68 127.12 123.68 127.12 C123.68 127.12 123.78 126.60 123.78 126.60 C123.70 126.60 123.62 126.55 123.54 126.44 C123.46 126.32 123.43 126.19 123.43 126.04 C123.43 126.04 123.48 125.66 123.48 125.66 C123.48 125.66 124.50 121.33 124.50 121.33 C124.50 121.33 124.53 121.00 124.53 121.00 C124.53 120.48 124.34 120.01 123.99 119.59 C123.57 119.12 122.99 118.82 122.28 118.69 C122.28 118.69 124.70 116.32 124.70 116.32 C124.80 116.17 124.87 116.02 124.91 115.89 C124.96 115.76 124.99 115.58 124.99 115.36 C124.99 115.17 124.91 114.99 124.77 114.84 C124.62 114.69 124.47 114.61 124.30 114.61 C124.30 114.61 120.55 114.61 120.55 114.61 C120.55 114.61 120.42 115.13 120.42 115.13 C120.40 115.13 120.38 115.20 120.36 115.33 C120.34 115.46 120.34 115.61 120.34 115.76 C120.34 115.94 120.27 116.12 120.14 116.31 C120.14 116.31 118.77 118.26 118.77 118.26 C118.77 118.26 118.55 118.26 118.55 118.26 C118.55 118.26 119.90 112.59 119.90 112.59 C119.90 112.59 119.97 112.11 119.97 112.11 Z M93.35 115.52 C92.34 116.25 91.64 117.40 91.29 118.97 C91.29 118.97 90.83 120.87 90.83 120.87 C90.59 121.86 90.48 122.72 90.48 123.47 C90.48 125.21 91.26 126.08 92.84 126.08 C92.84 126.08 93.96 126.08 93.96 126.08 C94.75 126.08 95.30 126.03 95.60 125.93 C96.00 125.80 96.37 125.50 96.70 125.04 C96.70 125.04 97.06 125.04 97.06 125.04 C97.06 125.04 96.91 125.66 96.91 125.66 C96.78 126.18 96.56 126.55 96.24 126.78 C95.91 127.01 95.44 127.12 94.79 127.12 C94.79 127.12 92.07 127.12 92.07 127.12 C91.59 127.12 91.25 127.08 91.04 127.00 C90.84 126.92 90.71 126.79 90.63 126.60 C90.63 126.60 90.12 126.60 90.12 126.60 C90.12 126.60 89.65 128.34 89.65 128.34 C89.56 128.64 89.51 128.93 89.51 129.18 C89.51 129.74 89.71 130.15 90.12 130.40 C90.52 130.64 91.09 130.77 91.84 130.77 C91.84 130.77 96.54 130.77 96.54 130.77 C98.38 130.77 99.70 130.47 100.49 129.87 C101.35 129.23 101.99 127.97 102.44 126.08 C102.44 126.08 104.45 117.21 104.45 117.21 C104.46 117.12 104.49 116.98 104.54 116.80 C104.54 116.80 104.54 116.45 104.54 116.45 C104.54 115.88 104.35 115.43 103.99 115.10 C103.62 114.78 103.07 114.61 102.36 114.61 C102.36 114.61 96.37 114.61 96.37 114.61 C95.19 114.61 94.19 114.91 93.35 115.52 Z M97.31 123.29 C97.18 123.42 97.01 123.47 96.79 123.47 C96.79 123.47 96.70 123.47 96.70 123.47 C96.35 123.47 96.18 123.32 96.18 123.00 C96.18 122.80 96.20 122.64 96.23 122.54 C96.23 122.54 97.10 118.48 97.10 118.48 C97.16 118.23 97.25 118.04 97.40 117.92 C97.54 117.81 97.71 117.74 97.89 117.74 C97.89 117.74 98.09 117.74 98.09 117.74 C98.09 117.74 98.67 117.74 98.67 117.74 C98.67 117.74 97.58 122.76 97.58 122.76 C97.53 122.98 97.44 123.16 97.31 123.29 Z M83.06 123.37 C82.83 123.30 82.72 123.19 82.72 123.03 C82.72 123.03 82.78 122.62 82.78 122.62 C82.78 122.62 82.99 121.91 82.99 121.91 C82.99 121.91 87.10 121.91 87.10 121.91 C87.95 121.91 88.51 121.76 88.78 121.43 C89.03 121.11 89.31 120.29 89.60 118.97 C89.71 118.43 89.78 117.97 89.78 117.58 C89.78 116.60 89.45 115.86 88.78 115.36 C88.12 114.87 87.09 114.61 85.67 114.61 C85.67 114.61 83.20 114.61 83.20 114.61 C81.92 114.61 80.81 115.07 79.86 115.97 C78.91 116.86 78.25 118.15 77.88 119.82 C77.88 119.82 77.31 121.99 77.31 121.99 C77.07 122.94 76.96 123.73 76.96 124.33 C76.96 125.26 77.21 125.95 77.71 126.42 C78.21 126.89 79.00 127.12 80.08 127.12 C80.08 127.12 84.81 127.12 84.81 127.12 C85.74 127.12 86.43 126.99 86.90 126.71 C87.36 126.45 87.69 125.92 87.86 125.15 C87.86 125.15 88.43 122.84 88.43 122.84 C88.43 122.84 87.86 122.95 87.86 122.95 C87.74 123.16 87.55 123.30 87.28 123.37 C87.01 123.44 86.58 123.47 85.98 123.47 C85.98 123.47 84.16 123.47 84.16 123.47 C83.65 123.47 83.29 123.44 83.06 123.37 Z M83.74 118.65 C83.79 118.33 83.87 118.11 83.96 117.96 C84.04 117.81 84.21 117.74 84.47 117.74 C84.81 117.74 84.99 117.89 84.99 118.20 C84.99 118.35 84.97 118.48 84.94 118.60 C84.94 118.60 84.84 119.14 84.84 119.14 C84.74 119.60 84.55 119.82 84.27 119.82 C84.27 119.82 83.51 119.82 83.51 119.82 C83.51 119.82 83.74 118.65 83.74 118.65 Z M69.18 126.55 C69.18 126.71 69.24 126.84 69.37 126.95 C69.50 127.06 69.66 127.12 69.86 127.12 C69.86 127.12 75.17 127.12 75.17 127.12 C75.17 127.12 75.30 126.60 75.30 126.60 C75.15 126.60 75.00 126.53 74.87 126.37 C74.74 126.22 74.67 126.05 74.67 125.88 C74.67 125.88 74.69 125.51 74.69 125.51 C74.69 125.51 76.90 115.73 76.90 115.73 C76.90 115.73 76.96 115.24 76.96 115.24 C76.96 115.08 76.90 114.93 76.77 114.80 C76.64 114.68 76.47 114.61 76.27 114.61 C76.27 114.61 70.86 114.61 70.86 114.61 C70.86 114.61 70.73 115.13 70.73 115.13 C70.83 115.13 70.92 115.22 71.00 115.39 C71.08 115.56 71.13 115.74 71.13 115.92 C71.13 115.92 71.13 116.14 71.13 116.14 C71.13 116.24 71.12 116.34 71.10 116.44 C71.10 116.44 70.73 119.30 70.73 119.30 C70.73 119.30 69.26 119.30 69.26 119.30 C69.26 119.30 70.13 115.80 70.13 115.80 C70.13 115.80 70.21 115.28 70.21 115.28 C70.21 115.10 70.14 114.95 70.00 114.82 C69.87 114.69 69.69 114.61 69.48 114.61 C69.48 114.61 63.74 114.61 63.74 114.61 C63.74 114.61 63.60 115.13 63.60 115.13 C63.75 115.13 63.89 115.22 64.03 115.37 C64.16 115.53 64.23 115.69 64.23 115.85 C64.23 115.85 64.23 116.06 64.23 116.06 C64.23 116.16 64.21 116.25 64.18 116.34 C64.18 116.34 62.01 126.01 62.01 126.01 C62.01 126.01 61.95 126.49 61.95 126.49 C61.95 126.67 62.01 126.81 62.16 126.93 C62.29 127.06 62.47 127.12 62.69 127.12 C62.69 127.12 68.53 127.12 68.53 127.12 C68.53 127.12 68.66 126.60 68.66 126.60 C68.45 126.60 68.25 126.54 68.07 126.39 C67.87 126.25 67.78 126.10 67.78 125.95 C67.78 125.95 67.81 125.61 67.81 125.61 C67.81 125.61 68.59 122.43 68.59 122.43 C68.59 122.43 69.80 122.43 69.80 122.43 C69.80 122.43 69.22 126.10 69.22 126.10 C69.22 126.10 69.18 126.55 69.18 126.55 Z M55.16 123.37 C54.93 123.30 54.82 123.19 54.82 123.03 C54.82 123.03 54.88 122.62 54.88 122.62 C54.88 122.62 55.08 121.91 55.08 121.91 C55.08 121.91 59.20 121.91 59.20 121.91 C60.05 121.91 60.61 121.76 60.87 121.43 C61.13 121.11 61.41 120.29 61.70 118.97 C61.81 118.43 61.87 117.97 61.87 117.58 C61.87 116.60 61.54 115.86 60.88 115.36 C60.22 114.87 59.18 114.61 57.76 114.61 C57.76 114.61 55.29 114.61 55.29 114.61 C54.02 114.61 52.91 115.07 51.96 115.97 C51.01 116.86 50.34 118.15 49.97 119.82 C49.97 119.82 49.41 121.99 49.41 121.99 C49.16 122.94 49.05 123.73 49.05 124.33 C49.05 125.26 49.30 125.95 49.80 126.42 C50.30 126.89 51.09 127.12 52.18 127.12 C52.18 127.12 56.91 127.12 56.91 127.12 C57.84 127.12 58.53 126.99 59.00 126.71 C59.46 126.45 59.78 125.92 59.96 125.15 C59.96 125.15 60.53 122.84 60.53 122.84 C60.53 122.84 59.96 122.95 59.96 122.95 C59.84 123.16 59.64 123.30 59.38 123.37 C59.10 123.44 58.68 123.47 58.08 123.47 C58.08 123.47 56.25 123.47 56.25 123.47 C55.75 123.47 55.38 123.44 55.16 123.37 Z M55.83 118.65 C55.89 118.33 55.96 118.11 56.05 117.96 C56.14 117.81 56.31 117.74 56.57 117.74 C56.91 117.74 57.09 117.89 57.09 118.20 C57.09 118.35 57.07 118.48 57.04 118.60 C57.04 118.60 56.93 119.14 56.93 119.14 C56.84 119.60 56.65 119.82 56.37 119.82 C56.37 119.82 55.61 119.82 55.61 119.82 C55.61 119.82 55.83 118.65 55.83 118.65 Z M31.98 126.60 C31.83 126.60 31.71 126.54 31.61 126.43 C31.51 126.32 31.46 126.15 31.46 125.94 C31.46 125.94 31.46 125.62 31.46 125.62 C31.46 125.62 33.53 120.28 33.53 120.28 C33.53 120.28 33.53 127.12 33.53 127.12 C33.53 127.12 38.94 127.12 38.94 127.12 C38.94 127.12 41.60 120.24 41.60 120.24 C41.60 120.24 41.55 126.26 41.55 126.26 C41.55 126.47 41.64 126.67 41.82 126.85 C42.00 127.03 42.19 127.12 42.38 127.12 C42.38 127.12 48.54 127.12 48.54 127.12 C48.54 127.12 48.65 126.60 48.65 126.60 C48.42 126.60 48.20 126.54 47.99 126.41 C47.78 126.28 47.69 126.11 47.69 125.90 C47.69 125.90 46.94 112.62 46.94 112.62 C46.94 112.32 46.85 112.06 46.67 111.83 C46.49 111.60 46.27 111.49 46.02 111.49 C46.02 111.49 39.85 111.49 39.85 111.49 C39.85 111.49 39.71 112.01 39.71 112.01 C40.07 112.01 40.24 112.19 40.24 112.55 C40.24 112.72 40.21 112.87 40.15 112.98 C40.15 112.98 38.18 117.77 38.18 117.77 C38.18 117.77 38.18 112.30 38.18 112.30 C38.18 112.03 38.08 111.83 37.89 111.69 C37.69 111.56 37.48 111.49 37.24 111.49 C37.24 111.49 31.07 111.49 31.07 111.49 C31.07 111.49 30.96 112.01 30.96 112.01 C31.12 112.01 31.27 112.09 31.41 112.24 C31.54 112.39 31.61 112.55 31.61 112.73 C31.61 112.89 31.58 113.03 31.52 113.14 C31.52 113.14 26.40 125.85 26.40 125.85 C26.33 126.01 26.29 126.17 26.29 126.35 C26.29 126.56 26.38 126.75 26.55 126.89 C26.73 127.05 26.96 127.12 27.26 127.12 C27.26 127.12 31.85 127.12 31.85 127.12 C31.85 127.12 31.98 126.60 31.98 126.60 Z"/>
</g>
</svg>