<?xml version="1.0" encoding="utf-8"?>
<!-- Generator: Adobe Illustrator 17.0.0, SVG Export Plug-In . SVG Version: 6.00 Build 0)  -->
<!DOCTYPE svg PUBLIC "-//W3C//DTD SVG 1.1//EN" "http://www.w3.org/Graphics/SVG/1.1/DTD/svg11.dtd">
<svg version="1.1" id="Layer_1" xmlns="http://www.w3.org/2000/svg" xmlns:xlink="http://www.w3.org/1999/xlink" x="0px" y="0px"
	 width="115.9px" height="15.614px" viewBox="6.389 -0.054 115.9 15.614" enable-background="new 6.389 -0.054 115.9 15.614"
	 xml:space="preserve">
<g>
	<path d="M13.619,10.117c0.202,0.21,0.304,0.568,0.304,1.075c0,0.594-0.148,0.984-0.445,1.172c-0.297,0.188-0.887,0.282-1.77,0.282
		c-0.217,0-1.867-0.036-4.95-0.109l-0.195,2.388c1.737,0.376,3.452,0.565,5.145,0.565c2.084,0,3.531-0.3,4.342-0.901
		c0.81-0.601,1.216-1.74,1.216-3.419c0-1.129-0.239-2.044-0.716-2.747c-0.477-0.702-1.295-1.255-2.453-1.661l-2.845-0.977
		c-0.608-0.202-1.02-0.412-1.238-0.629C9.798,4.938,9.689,4.584,9.689,4.092c0-0.608,0.144-0.988,0.434-1.14
		c0.29-0.153,0.868-0.229,1.737-0.229c1.867,0,3.43,0.022,4.69,0.065l0.217-2.258c-1.375-0.391-3.018-0.586-4.928-0.586
		c-2.027,0-3.441,0.279-4.244,0.836C6.791,1.339,6.389,2.442,6.389,4.092c0,1.129,0.239,2.04,0.716,2.735s1.273,1.245,2.388,1.65
		l3.018,1.064C13.046,9.715,13.416,9.907,13.619,10.117z"/>
	<path d="M33.186,5.44c0-1.657-0.517-2.9-1.55-3.728c-1.033-0.829-2.691-1.243-4.972-1.243c-2.476,0-4.25,0.561-5.323,1.682
		c-1.072,1.121-1.608,3.076-1.608,5.864c0,2.73,0.545,4.669,1.638,5.82c1.092,1.151,2.934,1.726,5.527,1.726
		s4.562-0.322,5.908-0.965l-0.322-2.281c-1.969,0.234-3.685,0.351-5.147,0.351c-1.287,0-2.213-0.209-2.778-0.629
		c-0.565-0.419-0.917-1.253-1.053-2.5h5.849C31.909,9.534,33.186,8.169,33.186,5.44L33.186,5.44z M24.223,4.051
		c0.477-0.516,1.34-0.775,2.588-0.775c1.072,0,1.813,0.156,2.223,0.468c0.41,0.312,0.614,0.858,0.614,1.638
		c0,1.111-0.429,1.667-1.287,1.667h-4.913C23.486,5.567,23.745,4.567,24.223,4.051z"/>
	<path d="M36.109,2.941h6.817c-0.246,0.405-0.456,0.876-0.629,1.411l-3.799,10.855h3.257l4.538-13.221
		c0.173-0.492,0.134-0.908-0.119-1.248s-0.655-0.51-1.205-0.51h-8.988L36.109,2.941z"/>
	<path d="M61.883,5.44c0-1.657-0.517-2.9-1.55-3.728c-1.033-0.829-2.691-1.243-4.972-1.243c-2.476,0-4.25,0.561-5.323,1.682
		c-1.072,1.121-1.608,3.076-1.608,5.864c0,2.73,0.545,4.669,1.638,5.82c1.092,1.151,2.934,1.726,5.527,1.726
		c2.593,0,4.562-0.322,5.908-0.965l-0.322-2.281c-1.969,0.234-3.685,0.351-5.147,0.351c-1.287,0-2.213-0.209-2.778-0.629
		c-0.566-0.419-0.917-1.253-1.053-2.5h5.849C60.606,9.534,61.883,8.169,61.883,5.44L61.883,5.44z M52.919,4.051
		c0.477-0.516,1.34-0.775,2.588-0.775c1.072,0,1.813,0.156,2.223,0.468c0.41,0.312,0.614,0.858,0.614,1.638
		c0,1.111-0.429,1.667-1.287,1.667h-4.913C52.183,5.567,52.441,4.567,52.919,4.051z"/>
	<path d="M64.908,0.878v14.329h3.568V5.235c1.092-0.624,1.984-1.072,2.676-1.345c0.692-0.273,1.369-0.41,2.032-0.41
		c0.585,0,0.984,0.142,1.199,0.424c0.214,0.283,0.322,0.824,0.322,1.623v9.679h3.568V4.445c0-1.287-0.341-2.271-1.023-2.954
		c-0.683-0.682-1.657-1.023-2.924-1.023c-1.911,0-3.977,0.839-6.2,2.515l-0.234-2.106H64.908z"/>
	<path d="M88.742,10.117c0.202,0.21,0.304,0.568,0.304,1.075c0,0.594-0.148,0.984-0.445,1.172c-0.297,0.188-0.886,0.282-1.769,0.282
		c-0.217,0-1.867-0.036-4.95-0.109l-0.195,2.388c1.737,0.376,3.452,0.565,5.145,0.565c2.084,0,3.531-0.3,4.342-0.901
		c0.81-0.601,1.216-1.74,1.216-3.419c0-1.129-0.239-2.044-0.716-2.747c-0.477-0.702-1.295-1.255-2.453-1.661l-2.844-0.977
		c-0.608-0.202-1.02-0.413-1.238-0.629c-0.217-0.217-0.325-0.572-0.325-1.064c0-0.608,0.144-0.988,0.434-1.14
		c0.29-0.152,0.868-0.228,1.737-0.228c1.867,0,3.43,0.022,4.69,0.065l0.217-2.258c-1.375-0.391-3.018-0.586-4.928-0.586
		c-2.027,0-3.441,0.279-4.244,0.836c-0.803,0.557-1.205,1.661-1.205,3.311c0,1.129,0.239,2.04,0.716,2.735s1.273,1.245,2.388,1.65
		l3.018,1.064C88.171,9.715,88.539,9.907,88.742,10.117z"/>
	<path d="M103.846,15.207h3.691l-3.951-6.405c-0.319-0.521-0.738-0.962-1.259-1.324V7.392c0.477-0.362,0.839-0.76,1.086-1.194
		l3.864-5.97h-3.582l-3.799,6.014h-1.281c0.101-0.55,0.152-1.143,0.152-1.78V0.228h-3.3v14.98h3.3V10.04
		c0-0.376-0.051-0.854-0.152-1.433h1.281L103.846,15.207z"/>
	<path d="M122.29,0.228h-3.409l-2.496,5.492c-0.188,0.477-0.369,1.107-0.543,1.889h-0.217c-0.232-0.94-0.42-1.571-0.565-1.889
		l-2.496-5.492h-3.452l4.95,10.03v4.95h3.321v-4.95L122.29,0.228z"/>
</g>
</svg>
